<svg width="103" height="80" viewBox="0 0 103 80" fill="none" xmlns="http://www.w3.org/2000/svg">
<mask id="mask0_72_14332" style="mask-type:luminance" maskUnits="userSpaceOnUse" x="16" y="0" width="66" height="50">
<path d="M81.5628 0H16.4536V49.2537H81.5628V0Z" fill="white"/>
</mask>
<g mask="url(#mask0_72_14332)">
<path d="M43.9687 48.8145V42.8425C43.9687 41.8871 43.1947 41.1121 42.2391 41.1121H35.5497" stroke="#001E64" stroke-miterlimit="10"/>
<path d="M30.8558 41.9002V33.5421" stroke="#001E64" stroke-miterlimit="10"/>
<path d="M35.3602 41.9002V33.5421" stroke="#001E64" stroke-miterlimit="10"/>
<path d="M35.2259 32.613C35.3404 32.613 35.4332 32.7058 35.4332 32.8204V33.3406C35.4332 33.4551 35.3404 33.548 35.2259 33.548H30.9901C30.8756 33.548 30.7828 33.4551 30.7828 33.3406V32.8204C30.7828 32.7058 30.8756 32.613 30.9901 32.613H35.2259ZM35.2259 31.7346H30.9901C30.3918 31.7346 29.9048 32.2219 29.9048 32.8204V33.3406C29.9048 33.9391 30.3918 34.4263 30.9901 34.4263H35.2259C35.8242 34.4263 36.3112 33.9391 36.3112 33.3406V32.8204C36.3112 32.2219 35.8242 31.7346 35.2259 31.7346Z" fill="#001E64"/>
<path d="M35.7781 29.4696C35.7781 30.5672 35.0521 31.6846 33.108 31.6846C30.8558 31.6846 30.4379 30.5672 30.4379 29.4696C30.4379 27.304 33.108 26.1445 33.108 23.3791C33.108 26.3697 35.7781 27.304 35.7781 29.4696Z" stroke="#001E64" stroke-linejoin="round"/>
<path d="M42.0245 33.2879C42.0245 34.3855 41.2986 35.5029 39.3544 35.5029C37.1022 35.5029 36.6843 34.3855 36.6843 33.2879C36.6843 31.1223 39.3544 29.9628 39.3544 27.1974C39.3544 30.188 42.0245 31.1223 42.0245 33.2879Z" stroke="#001E64" stroke-linejoin="round"/>
<path d="M29.5021 33.2879C29.5021 34.3855 28.7761 35.5029 26.832 35.5029C24.5798 35.5029 24.1619 34.3855 24.1619 33.2879C24.1619 31.1223 26.832 29.9628 26.832 27.1974C26.832 30.188 29.5021 31.1223 29.5021 33.2879Z" stroke="#001E64" stroke-linejoin="round"/>
<path d="M33.1364 23.3791V17.7903" stroke="#001E64" stroke-miterlimit="10"/>
<path d="M31.483 19.6537H34.7896" stroke="#001E64" stroke-miterlimit="10"/>
<path d="M29.7666 48.8145V44.4556C29.7666 42.6094 31.2626 41.1128 33.108 41.1128C34.9535 41.1128 36.4494 42.6094 36.4494 44.4556V48.8145" stroke="#001E64" stroke-miterlimit="10"/>
<path d="M36.4784 48.8145V45.4209C36.4784 43.9835 37.6433 42.8181 39.08 42.8181C40.5168 42.8181 41.6817 43.9835 41.6817 45.4209V48.8145" stroke="#001E64" stroke-miterlimit="10"/>
<path d="M22.0531 48.8145V42.8425C22.0531 41.8871 22.8271 41.1121 23.7827 41.1121H30.4721" stroke="#001E64" stroke-miterlimit="10"/>
<path d="M29.7172 48.8145V45.4209C29.7172 43.9835 28.5523 42.8181 27.1156 42.8181C25.6788 42.8181 24.5139 43.9835 24.5139 45.4209V48.8145" stroke="#001E64" stroke-miterlimit="10"/>
<path d="M31.1646 48.8145V44.7631C31.1646 43.6892 32.0346 42.8188 33.1081 42.8188C34.1815 42.8188 35.0516 43.6892 35.0516 44.7631V48.8145" stroke="#001E64" stroke-miterlimit="10"/>
<path d="M25.4999 41.1128V37.0858" stroke="#001E64" stroke-miterlimit="10"/>
<path d="M28.1818 41.5684V37.0858" stroke="#001E64" stroke-miterlimit="10"/>
<path d="M28.503 36.1561C28.6175 36.1561 28.7103 36.2489 28.7103 36.3635V36.8836C28.7103 36.9982 28.6175 37.091 28.503 37.091H25.1787C25.0642 37.091 24.9714 36.9982 24.9714 36.8836V36.3635C24.9714 36.2489 25.0642 36.1561 25.1787 36.1561H28.503ZM28.503 35.2777H25.1787C24.5804 35.2777 24.0934 35.765 24.0934 36.3635V36.8836C24.0934 37.4822 24.5804 37.9694 25.1787 37.9694H28.503C29.1012 37.9694 29.5883 37.4822 29.5883 36.8836V36.3635C29.5883 35.765 29.1012 35.2777 28.503 35.2777Z" fill="#001E64"/>
<path d="M26.8694 28.5182V22.9294" stroke="#001E64" stroke-miterlimit="10"/>
<path d="M25.2162 24.7921H28.5227" stroke="#001E64" stroke-miterlimit="10"/>
<path d="M38.0138 41.1128V37.0858" stroke="#001E64" stroke-miterlimit="10"/>
<path d="M40.6958 41.5684V37.0858" stroke="#001E64" stroke-miterlimit="10"/>
<path d="M41.017 36.1561C41.1315 36.1561 41.2243 36.2489 41.2243 36.3635V36.8836C41.2243 36.9982 41.1315 37.091 41.017 37.091H37.6927C37.5782 37.091 37.4854 36.9982 37.4854 36.8836V36.3635C37.4854 36.2489 37.5782 36.1561 37.6927 36.1561H41.017ZM41.017 35.2777H37.6927C37.0945 35.2777 36.6074 35.765 36.6074 36.3635V36.8836C36.6074 37.4822 37.0945 37.9694 37.6927 37.9694H41.017C41.6153 37.9694 42.1023 37.4822 42.1023 36.8836V36.3635C42.1023 35.765 41.6153 35.2777 41.017 35.2777Z" fill="#001E64"/>
<path d="M39.3834 28.5182V22.9294" stroke="#001E64" stroke-miterlimit="10"/>
<path d="M37.7302 24.7921H41.0368" stroke="#001E64" stroke-miterlimit="10"/>
<path d="M53.7673 42.3829L46.9074 36.3977L41.017 41.0021" stroke="#001E64" stroke-miterlimit="10"/>
<path d="M62.8563 42.4843H53.6659V48.6683H62.8563V42.4843Z" stroke="#001E64" stroke-miterlimit="10"/>
<path d="M50.1533 39.4357V20.403L52.753 18.7582H56.6802V27.1974H58.261V39.7939" stroke="#001E64" stroke-miterlimit="10"/>
<path d="M52.7833 18.7654V41.4156" stroke="#001E64" stroke-miterlimit="10"/>
<path d="M56.6802 27.1974H52.8906" stroke="#001E64" stroke-miterlimit="10"/>
<path d="M56.6664 20.5847H54.3622" stroke="#001E64" stroke-miterlimit="10"/>
<path d="M56.6664 22.2821H54.3622" stroke="#001E64" stroke-miterlimit="10"/>
<path d="M56.6664 23.9789H54.3622" stroke="#001E64" stroke-miterlimit="10"/>
<path d="M56.6664 25.6764H54.3622" stroke="#001E64" stroke-miterlimit="10"/>
<path d="M58.3276 29.0825H55.5146" stroke="#001E64" stroke-miterlimit="10"/>
<path d="M58.3276 30.8741H55.5146" stroke="#001E64" stroke-miterlimit="10"/>
<path d="M58.3276 32.6663H55.5146" stroke="#001E64" stroke-miterlimit="10"/>
<path d="M58.3276 34.4579H55.5146" stroke="#001E64" stroke-miterlimit="10"/>
<path d="M58.3276 36.2495H55.5146" stroke="#001E64" stroke-miterlimit="10"/>
<path d="M62.8925 45.4881V16.3121C62.8925 15.0288 63.5664 13.839 64.6668 13.1799L65.7659 12.5215V10.2578H71.578V29.5579H74.5976V48.8152" stroke="#001E64" stroke-miterlimit="10"/>
<path d="M65.7659 12.5208V31.0597" stroke="#001E64" stroke-miterlimit="10"/>
<path d="M71.578 16.5761L70.0676 17.6086C69.0146 18.3282 68.3854 19.5213 68.3854 20.7974V48.8152" stroke="#001E64" stroke-miterlimit="10"/>
<path d="M71.578 29.5572L68.1149 29.5776L62.8925 32.563" stroke="#001E64" stroke-miterlimit="10"/>
<path d="M68.3854 31.6846H74.5976" stroke="#001E64" stroke-miterlimit="10"/>
<path d="M68.3854 33.548H74.5976" stroke="#001E64" stroke-miterlimit="10"/>
<path d="M68.3854 35.4113H74.5976" stroke="#001E64" stroke-miterlimit="10"/>
<path d="M68.3854 37.2747H74.5976" stroke="#001E64" stroke-miterlimit="10"/>
<path d="M68.3854 39.1388H74.5976" stroke="#001E64" stroke-miterlimit="10"/>
<path d="M68.3854 41.0021H74.5976" stroke="#001E64" stroke-miterlimit="10"/>
<path d="M68.3854 42.8655H74.5976" stroke="#001E64" stroke-miterlimit="10"/>
<path d="M68.7454 44.7289H74.5976" stroke="#001E64" stroke-miterlimit="10"/>
<path d="M68.3854 46.5923H74.5976" stroke="#001E64" stroke-miterlimit="10"/>
<path d="M71.4912 12.0138H68.3854" stroke="#001E64" stroke-miterlimit="10"/>
<path d="M71.4912 13.5506H68.3854" stroke="#001E64" stroke-miterlimit="10"/>
<path d="M71.4912 15.0874H68.3854" stroke="#001E64" stroke-miterlimit="10"/>
<path d="M71.4912 16.6242H68.3854" stroke="#001E64" stroke-miterlimit="10"/>
<path d="M64.8939 33.548H62.6654" stroke="#001E64" stroke-miterlimit="10"/>
<path d="M64.8939 35.2922H62.6654" stroke="#001E64" stroke-miterlimit="10"/>
<path d="M64.8939 37.037H62.6654" stroke="#001E64" stroke-miterlimit="10"/>
<path d="M64.8939 38.7812H62.6654" stroke="#001E64" stroke-miterlimit="10"/>
<path d="M64.8939 40.5254H62.6654" stroke="#001E64" stroke-miterlimit="10"/>
<path d="M63.8165 4.62683C59.2154 1.96346 53.8725 0.439178 48.1743 0.439178C30.8979 0.439178 16.8926 14.4507 16.8926 31.7346C16.8926 38.0616 18.769 43.95 21.9958 48.8731" stroke="#001E64" stroke-miterlimit="10"/>
<path d="M74.4521 48.7203C77.6178 43.8282 79.456 37.9964 79.456 31.7347C79.456 25.4729 77.6744 19.8209 74.5976 14.9761" stroke="#001E64" stroke-miterlimit="10"/>
<path d="M17.1433 48.8145H81.5627" stroke="#001E64" stroke-miterlimit="10"/>
<path d="M51.5183 43.41L58.261 39.4357L64.8938 43.3719" stroke="#001E64" stroke-miterlimit="10"/>
<path d="M59.5175 44.5017H57.0054V48.4563H59.5175V44.5017Z" stroke="#001E64" stroke-miterlimit="10"/>
<path d="M48.0677 40.293H45.5555V44.2476H48.0677V40.293Z" stroke="#001E64" stroke-miterlimit="10"/>
<path d="M43.9688 48.4563V43.41" stroke="#001E64" stroke-miterlimit="10"/>
<path d="M43.8575 38.7812V35.5029" stroke="#001E64" stroke-miterlimit="10"/>
</g>
<path d="M0.598633 66.028V61.9325C0.958423 61.9325 1.22606 61.8403 1.40157 61.656C1.57708 61.4716 1.70432 61.2433 1.7833 60.9712C1.86228 60.6902 1.9237 60.3962 1.96758 60.0889C2.02023 59.7816 2.05972 59.47 2.08605 59.1539C2.11237 58.8379 2.12992 58.5306 2.1387 58.2321C2.1738 57.5561 2.20012 56.8976 2.21767 56.2568C2.23523 55.6159 2.244 54.9794 2.244 54.3473H8.82546V61.9325H9.94431V66.028H8.06201V63.6708H2.48093V66.028H0.598633ZM3.45499 61.9325H6.94316V56.0988H3.98151L3.91569 59.0354C3.91569 59.211 3.90692 59.4217 3.88937 59.6675C3.88059 59.9045 3.85865 60.1547 3.82355 60.4181C3.78845 60.6815 3.74019 60.9449 3.67876 61.2082C3.62611 61.4716 3.55152 61.7131 3.45499 61.9325ZM15.1875 63.7761C14.231 63.7761 13.4061 63.5742 12.7129 63.1704C12.0284 62.7666 11.5019 62.2091 11.1333 61.4979C10.7735 60.7781 10.5936 59.9528 10.5936 59.0222C10.5936 58.0741 10.7779 57.24 11.1465 56.5202C11.5238 55.8003 12.0591 55.2428 12.7524 54.8477C13.4456 54.4439 14.2704 54.242 15.227 54.242C16.1747 54.242 16.9908 54.4395 17.6753 54.8346C18.3598 55.2296 18.8863 55.7827 19.2549 56.4938C19.6322 57.2049 19.8209 58.0346 19.8209 58.9827C19.8209 59.9133 19.6322 60.7429 19.2549 61.4716C18.8863 62.1915 18.3554 62.7577 17.6621 63.1704C16.9777 63.5742 16.1527 63.7761 15.1875 63.7761ZM15.2138 62.0115C15.8457 62.0115 16.359 61.8667 16.7539 61.577C17.1488 61.2872 17.434 60.9141 17.6095 60.4576C17.7938 60.0011 17.8859 59.5226 17.8859 59.0222C17.8859 58.6535 17.8333 58.2892 17.728 57.9292C17.6314 57.5692 17.4779 57.2444 17.2673 56.9547C17.0566 56.665 16.7802 56.4367 16.438 56.27C16.0957 56.0944 15.6833 56.0066 15.2007 56.0066C14.5776 56.0066 14.0687 56.1514 13.6738 56.4412C13.2789 56.7221 12.9849 57.0908 12.7919 57.5473C12.6076 58.0038 12.5154 58.4911 12.5154 59.0091C12.5154 59.527 12.6076 60.0143 12.7919 60.4708C12.9849 60.9273 13.2789 61.3004 13.6738 61.5901C14.0774 61.8711 14.5908 62.0115 15.2138 62.0115ZM21.2877 63.6708V54.3473H23.7755L26.2896 58.851L28.7642 54.3473H31.173V63.6708H29.2776V56.8494L26.6318 61.5901H25.8552L23.17 56.8494V63.6708H21.2877ZM32.1783 63.6708L35.8113 54.3473H37.9173L41.5108 63.6708H39.4837L38.9046 62.0774H34.7846L34.2054 63.6708H32.1783ZM35.3901 60.3786H38.3122L36.8643 56.349L35.3901 60.3786ZM46.2253 63.6708V54.3473H49.8582C50.569 54.3473 51.1877 54.4571 51.7142 54.6765C52.2495 54.8872 52.6619 55.2296 52.9515 55.7037C53.2411 56.169 53.3859 56.7923 53.3859 57.5737C53.3859 58.3024 53.2236 58.9125 52.8989 59.4041C52.583 59.8958 52.1486 60.2645 51.5957 60.5103C51.0429 60.7473 50.4155 60.8658 49.7134 60.8658H48.1076V63.6708H46.2253ZM48.1076 59.1802H49.6871C50.2488 59.1802 50.6919 59.0486 51.0166 58.7852C51.3501 58.5131 51.5168 58.1048 51.5168 57.5605C51.5168 57.0688 51.3764 56.7045 51.0955 56.4675C50.8235 56.2217 50.3847 56.0988 49.7793 56.0988H48.1076V59.1802ZM59.0082 63.7761C58.0518 63.7761 57.2268 63.5742 56.5336 63.1704C55.8491 62.7666 55.3226 62.2091 54.9541 61.4979C54.5943 60.7781 54.4144 59.9528 54.4144 59.0222C54.4144 58.0741 54.5987 57.24 54.9672 56.5202C55.3445 55.8003 55.8799 55.2428 56.5731 54.8477C57.2663 54.4439 58.0913 54.242 59.0477 54.242C59.9955 54.242 60.8116 54.4395 61.496 54.8346C62.1805 55.2296 62.707 55.7827 63.0756 56.4938C63.4529 57.2049 63.6416 58.0346 63.6416 58.9827C63.6416 59.9133 63.4529 60.7429 63.0756 61.4716C62.707 62.1915 62.1761 62.7577 61.4829 63.1704C60.7984 63.5742 59.9736 63.7761 59.0082 63.7761ZM59.0346 62.0115C59.6664 62.0115 60.1798 61.8667 60.5746 61.577C60.9695 61.2872 61.2547 60.9141 61.4302 60.4576C61.6145 60.0011 61.7066 59.5226 61.7066 59.0222C61.7066 58.6535 61.654 58.2892 61.5487 57.9292C61.4521 57.5692 61.2986 57.2444 61.088 56.9547C60.8774 56.665 60.601 56.4367 60.2587 56.27C59.9165 56.0944 59.504 56.0066 59.0214 56.0066C58.3983 56.0066 57.8894 56.1514 57.4945 56.4412C57.0996 56.7221 56.8056 57.0908 56.6126 57.5473C56.4283 58.0038 56.3362 58.4911 56.3362 59.0091C56.3362 59.527 56.4283 60.0143 56.6126 60.4708C56.8056 60.9273 57.0996 61.3004 57.4945 61.5901C57.8982 61.8711 58.4115 62.0115 59.0346 62.0115ZM69.1094 63.7761C68.1531 63.7761 67.337 63.583 66.661 63.1967C65.9943 62.8016 65.4851 62.2486 65.1341 61.5374C64.7919 60.8263 64.6208 59.9967 64.6208 59.0486C64.6208 58.0828 64.7963 57.24 65.1473 56.5202C65.5071 55.8003 66.0207 55.2428 66.6874 54.8477C67.3541 54.4439 68.157 54.242 69.0962 54.242C69.807 54.242 70.4434 54.3649 71.0048 54.6107C71.5662 54.8477 72.0184 55.2033 72.3606 55.6774C72.7114 56.1427 72.9312 56.7177 73.0187 57.4025H71.2023C71.0884 56.9723 70.8554 56.6343 70.5046 56.3885C70.1624 56.1339 69.7063 56.0066 69.1357 56.0066C68.5039 56.0066 67.9991 56.1514 67.6219 56.4412C67.2534 56.7221 66.9855 57.0908 66.819 57.5473C66.6525 57.9951 66.5689 58.4691 66.5689 58.9695C66.5689 59.4875 66.6564 59.9791 66.8322 60.4444C67.0079 60.9098 67.2843 61.2872 67.6614 61.577C68.0478 61.8667 68.5519 62.0115 69.1752 62.0115C69.5437 62.0115 69.8728 61.9588 70.1624 61.8535C70.452 61.7394 70.6889 61.577 70.8732 61.3663C71.066 61.1556 71.1977 60.9053 71.2681 60.6156H73.1504C73.0714 61.2917 72.843 61.8667 72.4659 62.3407C72.0888 62.8148 71.6103 63.1748 71.0312 63.4206C70.452 63.6576 69.8116 63.7761 69.1094 63.7761ZM78.6091 63.7761C77.6521 63.7761 76.836 63.583 76.1607 63.1967C75.4934 62.8016 74.9846 62.2486 74.6338 61.5374C74.2916 60.8263 74.1205 59.9967 74.1205 59.0486C74.1205 58.0828 74.2956 57.24 74.647 56.5202C75.0063 55.8003 75.5197 55.2428 76.1871 54.8477C76.8538 54.4439 77.6567 54.242 78.5959 54.242C79.3067 54.242 79.9425 54.3649 80.5045 54.6107C81.0659 54.8477 81.5181 55.2033 81.8603 55.6774C82.2111 56.1427 82.4303 56.7177 82.5184 57.4025H80.702C80.5874 56.9723 80.3551 56.6343 80.0043 56.3885C79.6621 56.1339 79.2053 56.0066 78.6354 56.0066C78.0036 56.0066 77.4988 56.1514 77.1216 56.4412C76.7531 56.7221 76.4852 57.0908 76.3187 57.5473C76.1515 57.9951 76.0686 58.4691 76.0686 58.9695C76.0686 59.4875 76.1561 59.9791 76.3319 60.4444C76.5069 60.9098 76.7834 61.2872 77.1611 61.577C77.5468 61.8667 78.0516 62.0115 78.6749 62.0115C79.0434 62.0115 79.3725 61.9588 79.6621 61.8535C79.9517 61.7394 80.1886 61.577 80.3729 61.3663C80.5657 61.1556 80.6973 60.9053 80.7678 60.6156H82.6501C82.5711 61.2917 82.3427 61.8667 81.9656 62.3407C81.5878 62.8148 81.11 63.1748 80.5308 63.4206C79.9517 63.6576 79.3106 63.7761 78.6091 63.7761ZM84.1072 63.6708V54.3473H85.9895V60.4839L90.4517 54.3473H92.0576V63.6708H90.1753V57.6132L85.7131 63.6708H84.1072ZM94.0307 63.6708V54.3473H95.913V60.4839L100.375 54.3473H101.981V63.6708H100.099V57.6132L95.6366 63.6708H94.0307Z" fill="#C90000"/>
<path d="M0.822144 76.7078V69.016H2.37504V74.0787L6.05639 69.016H7.38122V76.7078H5.82834V71.7103L2.14699 76.7078H0.822144ZM12.2887 76.7947C11.4996 76.7947 10.8263 76.6354 10.2688 76.3167C9.71863 75.9908 9.29873 75.5345 9.00915 74.9478C8.7268 74.3611 8.58563 73.6764 8.58563 72.8941C8.58563 72.0974 8.73042 71.4021 9.02001 70.8082C9.31683 70.2143 9.74035 69.7547 10.2906 69.4288C10.8408 69.0956 11.5032 68.929 12.2778 68.929C12.8642 68.929 13.3891 69.0304 13.8525 69.2332C14.3158 69.4288 14.6886 69.7218 14.971 70.1129C15.2606 70.4968 15.4415 70.9715 15.5139 71.5365H14.0153C13.9212 71.1816 13.7294 70.9024 13.4398 70.6996C13.1574 70.4895 12.781 70.3848 12.3104 70.3848C11.7892 70.3848 11.3729 70.504 11.0616 70.743C10.7575 70.9748 10.5367 71.279 10.3992 71.6556C10.2616 72.025 10.1928 72.4161 10.1928 72.829C10.1928 73.2563 10.2652 73.6619 10.41 74.0458C10.5548 74.4296 10.7829 74.7411 11.0942 74.9801C11.4127 75.2191 11.829 75.3389 12.343 75.3389C12.6471 75.3389 12.9185 75.2955 13.1574 75.2086C13.3964 75.1144 13.5918 74.9801 13.7439 74.8062C13.9031 74.6324 14.0117 74.4263 14.0696 74.1873H15.6225C15.5574 74.745 15.3692 75.2191 15.0578 75.6102C14.7465 76.0013 14.352 76.2983 13.8742 76.5011C13.3964 76.6966 12.8679 76.7947 12.2887 76.7947ZM18.3478 76.7078V70.4606H16.0022V69.016H22.268V70.4606H19.9116V76.7078H18.3478ZM26.3316 76.7947C25.5425 76.7947 24.862 76.6281 24.2901 76.295C23.7254 75.9618 23.291 75.5016 22.9869 74.9149C22.6901 74.321 22.5417 73.6402 22.5417 72.8724C22.5417 72.0902 22.6937 71.4021 22.9978 70.8082C23.3091 70.2143 23.7507 69.7547 24.3226 69.4288C24.8946 69.0956 25.5751 68.929 26.3642 68.929C27.1461 68.929 27.8194 69.0917 28.3841 69.4176C28.9488 69.7435 29.3831 70.1998 29.6872 70.7865C29.9985 71.3732 30.1542 72.0579 30.1542 72.8402C30.1542 73.6079 29.9985 74.292 29.6872 74.8932C29.3831 75.4871 28.9451 75.9546 28.3732 76.295C27.8085 76.6281 27.128 76.7947 26.3316 76.7947ZM26.3534 75.3389C26.8746 75.3389 27.2981 75.2191 27.6239 74.9801C27.9497 74.7411 28.185 74.4336 28.3298 74.0569C28.4818 73.6803 28.5578 73.2853 28.5578 72.8724C28.5578 72.5682 28.5144 72.268 28.4275 71.971C28.3479 71.6741 28.2212 71.4061 28.0474 71.1671C27.8737 70.9281 27.6456 70.7397 27.3633 70.6021C27.0809 70.4573 26.7407 70.3848 26.3425 70.3848C25.8285 70.3848 25.4086 70.504 25.0828 70.743C24.757 70.9748 24.5145 71.279 24.3552 71.6556C24.2032 72.0323 24.1272 72.4346 24.1272 72.8619C24.1272 73.2892 24.2032 73.6909 24.3552 74.0675C24.5145 74.4441 24.757 74.7523 25.0828 74.9913C25.4158 75.223 25.8393 75.3389 26.3534 75.3389ZM31.3643 76.7078V69.016H34.3615C34.9479 69.016 35.4583 69.1062 35.8927 69.2872C36.3343 69.4611 36.6746 69.7435 36.9135 70.1346C37.1524 70.5185 37.2718 71.0327 37.2718 71.6774C37.2718 72.2785 37.1379 72.7822 36.87 73.1878C36.6094 73.5934 36.251 73.8976 35.7949 74.1004C35.3388 74.296 34.8212 74.3934 34.242 74.3934H32.9172V76.7078H31.3643ZM32.9172 73.0028H34.2203C34.6837 73.0028 35.0493 72.8942 35.3171 72.6769C35.5922 72.4523 35.7298 72.1159 35.7298 71.6668C35.7298 71.2612 35.6139 70.9603 35.3823 70.7648C35.1579 70.562 34.7959 70.4606 34.2963 70.4606H32.9172V73.0028ZM38.4377 76.7078V69.016H39.9906V74.0787L43.672 69.016H44.9968V76.7078H43.4439V71.7103L39.7626 76.7078H38.4377ZM46.299 76.7078L48.2319 73.8285C47.689 73.6619 47.2691 73.3867 46.9723 73.0028C46.6754 72.6117 46.527 72.1119 46.527 71.5035C46.527 71.0327 46.6067 70.6383 46.7659 70.3197C46.9324 70.001 47.1569 69.7475 47.4392 69.5592C47.7215 69.3636 48.0473 69.226 48.4166 69.1463C48.793 69.0594 49.1912 69.016 49.6111 69.016H52.6192V76.7078H51.0663V74.0892H49.774L48.1342 76.7078H46.299ZM49.622 72.6986H51.0663V70.4606H49.4916C49.2021 70.4606 48.9523 70.4968 48.7423 70.5699C48.5324 70.6416 48.3659 70.7575 48.2428 70.9169C48.127 71.0762 48.0691 71.2902 48.0691 71.5582C48.0691 71.8624 48.1451 72.0974 48.2971 72.264C48.4491 72.4306 48.6446 72.5465 48.8835 72.6117C49.1297 72.6696 49.3758 72.6986 49.622 72.6986ZM60.5941 76.7947C59.8049 76.7947 59.1316 76.6354 58.5742 76.3167C58.024 75.9908 57.6041 75.5345 57.3145 74.9478C57.0322 74.3611 56.891 73.6764 56.891 72.8941C56.891 72.0974 57.0358 71.4021 57.3254 70.8082C57.6222 70.2143 58.0457 69.7547 58.5959 69.4288C59.1461 69.0956 59.8086 68.929 60.5832 68.929C61.1696 68.929 61.6945 69.0304 62.1578 69.2332C62.6211 69.4288 62.994 69.7218 63.2763 70.1129C63.5659 70.4968 63.7469 70.9715 63.8193 71.5365H62.3207C62.2266 71.1816 62.0347 70.9024 61.7452 70.6996C61.4628 70.4895 61.0863 70.3848 60.6158 70.3848C60.0945 70.3848 59.6782 70.504 59.3669 70.743C59.0629 70.9748 58.8421 71.279 58.7045 71.6556C58.567 72.025 58.4982 72.4161 58.4982 72.829C58.4982 73.2563 58.5706 73.6619 58.7154 74.0458C58.8602 74.4296 59.0882 74.7411 59.3995 74.9801C59.7181 75.2191 60.1343 75.3389 60.6483 75.3389C60.9524 75.3389 61.2239 75.2955 61.4628 75.2086C61.7017 75.1144 61.8972 74.9801 62.0492 74.8062C62.2085 74.6324 62.3171 74.4263 62.375 74.1873H63.9279C63.8627 74.745 63.6745 75.2191 63.3632 75.6102C63.0519 76.0013 62.6573 76.2983 62.1795 76.5011C61.7017 76.6966 61.1732 76.7947 60.5941 76.7947ZM66.6532 76.7078V70.4606H64.3075V69.016H70.5737V70.4606H68.2169V76.7078H66.6532ZM71.4826 76.7078V69.016H74.4798C75.0662 69.016 75.577 69.1062 76.0113 69.2872C76.453 69.4611 76.7932 69.7435 77.0321 70.1346C77.271 70.5185 77.3902 71.0327 77.3902 71.6774C77.3902 72.2785 77.2566 72.7822 76.9887 73.1878C76.7281 73.5934 76.3694 73.8976 75.9133 74.1004C75.4572 74.296 74.9399 74.3934 74.3607 74.3934H73.0359V76.7078H71.4826ZM73.0359 73.0028H74.339C74.8023 73.0028 75.1676 72.8942 75.4355 72.6769C75.7106 72.4523 75.8481 72.1159 75.8481 71.6668C75.8481 71.2612 75.7323 70.9603 75.5006 70.7648C75.2762 70.562 74.9142 70.4606 74.4147 70.4606H73.0359V73.0028ZM77.1058 76.7078L80.103 69.016H81.8405L84.8048 76.7078H83.1325L82.6547 75.3929H79.256L78.7782 76.7078H77.1058ZM79.7555 73.9918H82.1663L80.9718 70.6673L79.7555 73.9918ZM85.6295 76.7078V69.016H87.1827V72.1988H90.5057V69.016H92.0695V76.7078H90.5057V73.6329H87.1827V76.7078H85.6295ZM93.6997 76.7078V69.016H95.2529V71.8729H96.3928C96.7548 71.8729 97.1063 71.9091 97.4465 71.9816C97.794 72.0467 98.1053 72.1666 98.3804 72.3404C98.6628 72.507 98.8833 72.7421 99.0425 73.0462C99.209 73.3432 99.2926 73.7238 99.2926 74.1873C99.2926 74.6726 99.2058 75.0782 99.032 75.4041C98.8583 75.73 98.6226 75.9868 98.3258 76.1751C98.029 76.3635 97.6927 76.5011 97.3162 76.588C96.9398 76.6677 96.5488 76.7078 96.1434 76.7078H93.6997ZM95.2529 75.2737H96.1539C96.3711 75.2737 96.5778 75.2593 96.7732 75.2303C96.9687 75.2013 97.1385 75.1506 97.2833 75.0782C97.4353 74.9985 97.5512 74.8932 97.6308 74.7628C97.7177 74.6252 97.7611 74.4481 97.7611 74.2308C97.7611 74.0062 97.7177 73.8324 97.6308 73.7093C97.5439 73.5789 97.4281 73.4808 97.2833 73.4156C97.1385 73.3504 96.976 73.307 96.795 73.2853C96.614 73.2635 96.4257 73.253 96.2303 73.253H95.2529V75.2737ZM100.281 76.7078V69.016H101.844V76.7078H100.281Z" fill="#001E64"/>
</svg>
