<svg width="103" height="80" viewBox="0 0 103 80" fill="none" xmlns="http://www.w3.org/2000/svg">
<mask id="mask0_149_391" style="mask-type:luminance" maskUnits="userSpaceOnUse" x="16" y="0" width="66" height="50">
<path d="M81.5628 0H16.4536V49.2537H81.5628V0Z" fill="white"/>
</mask>
<g mask="url(#mask0_149_391)">
<path d="M43.9687 48.8142V42.8422C43.9687 41.8868 43.1947 41.1118 42.2391 41.1118H35.5497" stroke="white" stroke-miterlimit="10"/>
<path d="M30.8558 41.9002V33.542" stroke="white" stroke-miterlimit="10"/>
<path d="M35.3602 41.9002V33.542" stroke="white" stroke-miterlimit="10"/>
<path d="M35.2259 32.6127C35.3404 32.6127 35.4332 32.7056 35.4332 32.8201V33.3403C35.4332 33.4549 35.3404 33.5477 35.2259 33.5477H30.9901C30.8756 33.5477 30.7828 33.4549 30.7828 33.3403V32.8201C30.7828 32.7056 30.8756 32.6127 30.9901 32.6127H35.2259ZM35.2259 31.7344H30.9901C30.3918 31.7344 29.9048 32.2216 29.9048 32.8201V33.3403C29.9048 33.9388 30.3918 34.4261 30.9901 34.4261H35.2259C35.8242 34.4261 36.3112 33.9388 36.3112 33.3403V32.8201C36.3112 32.2216 35.8242 31.7344 35.2259 31.7344Z" fill="white"/>
<path d="M35.7781 29.4694C35.7781 30.5671 35.0521 31.6844 33.108 31.6844C30.8558 31.6844 30.4379 30.5671 30.4379 29.4694C30.4379 27.3038 33.108 26.1443 33.108 23.3789C33.108 26.3695 35.7781 27.3038 35.7781 29.4694Z" stroke="white" stroke-linejoin="round"/>
<path d="M42.0245 33.2878C42.0245 34.3854 41.2986 35.5028 39.3544 35.5028C37.1022 35.5028 36.6843 34.3854 36.6843 33.2878C36.6843 31.1222 39.3544 29.9627 39.3544 27.1973C39.3544 30.1879 42.0245 31.1222 42.0245 33.2878Z" stroke="white" stroke-linejoin="round"/>
<path d="M29.5021 33.2878C29.5021 34.3854 28.7761 35.5028 26.832 35.5028C24.5798 35.5028 24.1619 34.3854 24.1619 33.2878C24.1619 31.1222 26.832 29.9627 26.832 27.1973C26.832 30.1879 29.5021 31.1222 29.5021 33.2878Z" stroke="white" stroke-linejoin="round"/>
<path d="M33.1364 23.3788V17.79" stroke="white" stroke-miterlimit="10"/>
<path d="M31.483 19.6533H34.7896" stroke="white" stroke-miterlimit="10"/>
<path d="M29.7666 48.814V44.4552C29.7666 42.6089 31.2626 41.1123 33.108 41.1123C34.9535 41.1123 36.4494 42.6089 36.4494 44.4552V48.814" stroke="white" stroke-miterlimit="10"/>
<path d="M36.4784 48.8142V45.4207C36.4784 43.9833 37.6433 42.8179 39.08 42.8179C40.5168 42.8179 41.6817 43.9833 41.6817 45.4207V48.8142" stroke="white" stroke-miterlimit="10"/>
<path d="M22.0531 48.8142V42.8422C22.0531 41.8868 22.8271 41.1118 23.7827 41.1118H30.4721" stroke="white" stroke-miterlimit="10"/>
<path d="M29.7172 48.8142V45.4207C29.7172 43.9833 28.5523 42.8179 27.1156 42.8179C25.6788 42.8179 24.5139 43.9833 24.5139 45.4207V48.8142" stroke="white" stroke-miterlimit="10"/>
<path d="M31.1646 48.8141V44.7627C31.1646 43.6888 32.0346 42.8184 33.1081 42.8184C34.1815 42.8184 35.0516 43.6888 35.0516 44.7627V48.8141" stroke="white" stroke-miterlimit="10"/>
<path d="M25.4999 41.1124V37.0854" stroke="white" stroke-miterlimit="10"/>
<path d="M28.1818 41.5681V37.0854" stroke="white" stroke-miterlimit="10"/>
<path d="M28.503 36.1557C28.6175 36.1557 28.7103 36.2485 28.7103 36.3631V36.8833C28.7103 36.9978 28.6175 37.0907 28.503 37.0907H25.1787C25.0642 37.0907 24.9714 36.9978 24.9714 36.8833V36.3631C24.9714 36.2485 25.0642 36.1557 25.1787 36.1557H28.503ZM28.503 35.2773H25.1787C24.5804 35.2773 24.0934 35.7646 24.0934 36.3631V36.8833C24.0934 37.4818 24.5804 37.969 25.1787 37.969H28.503C29.1012 37.969 29.5883 37.4818 29.5883 36.8833V36.3631C29.5883 35.7646 29.1012 35.2773 28.503 35.2773Z" fill="white"/>
<path d="M26.8694 28.518V22.9292" stroke="white" stroke-miterlimit="10"/>
<path d="M25.2162 24.792H28.5227" stroke="white" stroke-miterlimit="10"/>
<path d="M38.0138 41.1124V37.0854" stroke="white" stroke-miterlimit="10"/>
<path d="M40.6958 41.5681V37.0854" stroke="white" stroke-miterlimit="10"/>
<path d="M41.017 36.1557C41.1315 36.1557 41.2243 36.2485 41.2243 36.3631V36.8833C41.2243 36.9978 41.1315 37.0907 41.017 37.0907H37.6927C37.5782 37.0907 37.4854 36.9978 37.4854 36.8833V36.3631C37.4854 36.2485 37.5782 36.1557 37.6927 36.1557H41.017ZM41.017 35.2773H37.6927C37.0945 35.2773 36.6074 35.7646 36.6074 36.3631V36.8833C36.6074 37.4818 37.0945 37.969 37.6927 37.969H41.017C41.6153 37.969 42.1023 37.4818 42.1023 36.8833V36.3631C42.1023 35.7646 41.6153 35.2773 41.017 35.2773Z" fill="white"/>
<path d="M39.3834 28.518V22.9292" stroke="white" stroke-miterlimit="10"/>
<path d="M37.7302 24.792H41.0368" stroke="white" stroke-miterlimit="10"/>
<path d="M53.7673 42.3826L46.9074 36.3975L41.017 41.0019" stroke="white" stroke-miterlimit="10"/>
<path d="M62.8563 42.4839H53.6659V48.6679H62.8563V42.4839Z" stroke="white" stroke-miterlimit="10"/>
<path d="M50.1533 39.4353V20.4026L52.753 18.7578H56.6802V27.197H58.261V39.7935" stroke="white" stroke-miterlimit="10"/>
<path d="M52.7833 18.7651V41.4153" stroke="white" stroke-miterlimit="10"/>
<path d="M56.6802 27.1973H52.8906" stroke="white" stroke-miterlimit="10"/>
<path d="M56.6664 20.5845H54.3622" stroke="white" stroke-miterlimit="10"/>
<path d="M56.6664 22.2817H54.3622" stroke="white" stroke-miterlimit="10"/>
<path d="M56.6664 23.9785H54.3622" stroke="white" stroke-miterlimit="10"/>
<path d="M56.6664 25.6763H54.3622" stroke="white" stroke-miterlimit="10"/>
<path d="M58.3276 29.082H55.5146" stroke="white" stroke-miterlimit="10"/>
<path d="M58.3276 30.874H55.5146" stroke="white" stroke-miterlimit="10"/>
<path d="M58.3276 32.666H55.5146" stroke="white" stroke-miterlimit="10"/>
<path d="M58.3276 34.4575H55.5146" stroke="white" stroke-miterlimit="10"/>
<path d="M58.3276 36.2495H55.5146" stroke="white" stroke-miterlimit="10"/>
<path d="M62.8925 45.4876V16.3116C62.8925 15.0284 63.5664 13.8386 64.6668 13.1795L65.7659 12.521V10.2573H71.578V29.5574H74.5976V48.8147" stroke="white" stroke-miterlimit="10"/>
<path d="M65.7659 12.5205V31.0594" stroke="white" stroke-miterlimit="10"/>
<path d="M71.578 16.5757L70.0676 17.6081C69.0146 18.3278 68.3854 19.5209 68.3854 20.7969V48.8147" stroke="white" stroke-miterlimit="10"/>
<path d="M71.578 29.5571L68.1149 29.5775L62.8925 32.5629" stroke="white" stroke-miterlimit="10"/>
<path d="M68.3854 31.6846H74.5976" stroke="white" stroke-miterlimit="10"/>
<path d="M68.3854 33.5479H74.5976" stroke="white" stroke-miterlimit="10"/>
<path d="M68.3854 35.4111H74.5976" stroke="white" stroke-miterlimit="10"/>
<path d="M68.3854 37.2744H74.5976" stroke="white" stroke-miterlimit="10"/>
<path d="M68.3854 39.1387H74.5976" stroke="white" stroke-miterlimit="10"/>
<path d="M68.3854 41.002H74.5976" stroke="white" stroke-miterlimit="10"/>
<path d="M68.3854 42.8652H74.5976" stroke="white" stroke-miterlimit="10"/>
<path d="M68.7454 44.7285H74.5976" stroke="white" stroke-miterlimit="10"/>
<path d="M68.3854 46.5923H74.5976" stroke="white" stroke-miterlimit="10"/>
<path d="M71.4912 12.0137H68.3854" stroke="white" stroke-miterlimit="10"/>
<path d="M71.4912 13.5503H68.3854" stroke="white" stroke-miterlimit="10"/>
<path d="M71.4912 15.0874H68.3854" stroke="white" stroke-miterlimit="10"/>
<path d="M71.4912 16.624H68.3854" stroke="white" stroke-miterlimit="10"/>
<path d="M64.8939 33.5479H62.6654" stroke="white" stroke-miterlimit="10"/>
<path d="M64.8939 35.292H62.6654" stroke="white" stroke-miterlimit="10"/>
<path d="M64.8939 37.0366H62.6654" stroke="white" stroke-miterlimit="10"/>
<path d="M64.8939 38.7812H62.6654" stroke="white" stroke-miterlimit="10"/>
<path d="M64.8939 40.5254H62.6654" stroke="white" stroke-miterlimit="10"/>
<path d="M63.8165 4.62662C59.2154 1.96324 53.8725 0.438965 48.1743 0.438965C30.8979 0.438965 16.8926 14.4505 16.8926 31.7344C16.8926 38.0613 18.769 43.9497 21.9958 48.8729" stroke="white" stroke-miterlimit="10"/>
<path d="M74.4521 48.7203C77.6178 43.8281 79.456 37.9963 79.456 31.7346C79.456 25.4729 77.6744 19.8208 74.5976 14.9761" stroke="white" stroke-miterlimit="10"/>
<path d="M17.1433 48.8145H81.5627" stroke="white" stroke-miterlimit="10"/>
<path d="M51.5183 43.4099L58.261 39.4355L64.8938 43.3717" stroke="white" stroke-miterlimit="10"/>
<path d="M59.5175 44.5015H57.0054V48.456H59.5175V44.5015Z" stroke="white" stroke-miterlimit="10"/>
<path d="M48.0677 40.293H45.5555V44.2475H48.0677V40.293Z" stroke="white" stroke-miterlimit="10"/>
<path d="M43.9688 48.4559V43.4097" stroke="white" stroke-miterlimit="10"/>
<path d="M43.8575 38.7808V35.5024" stroke="white" stroke-miterlimit="10"/>
</g>
<path d="M0.598633 66.0282V61.9327C0.958423 61.9327 1.22606 61.8405 1.40157 61.6562C1.57708 61.4718 1.70432 61.2435 1.7833 60.9714C1.86228 60.6905 1.9237 60.3964 1.96758 60.0891C2.02023 59.7818 2.05972 59.4702 2.08605 59.1541C2.11237 58.8381 2.12992 58.5308 2.1387 58.2323C2.1738 57.5563 2.20012 56.8979 2.21767 56.257C2.23523 55.6161 2.244 54.9796 2.244 54.3475H8.82546V61.9327H9.94431V66.0282H8.06201V63.671H2.48093V66.0282H0.598633ZM3.45499 61.9327H6.94316V56.099H3.98151L3.91569 59.0356C3.91569 59.2112 3.90692 59.4219 3.88937 59.6677C3.88059 59.9047 3.85865 60.1549 3.82355 60.4183C3.78845 60.6817 3.74019 60.9451 3.67876 61.2084C3.62611 61.4718 3.55152 61.7133 3.45499 61.9327ZM15.1875 63.7763C14.231 63.7763 13.4061 63.5744 12.7129 63.1706C12.0284 62.7668 11.5019 62.2093 11.1333 61.4982C10.7735 60.7783 10.5936 59.953 10.5936 59.0224C10.5936 58.0743 10.7779 57.2402 11.1465 56.5204C11.5238 55.8005 12.0591 55.243 12.7524 54.8479C13.4456 54.4441 14.2704 54.2422 15.227 54.2422C16.1747 54.2422 16.9908 54.4397 17.6753 54.8348C18.3598 55.2298 18.8863 55.7829 19.2549 56.494C19.6322 57.2052 19.8209 58.0348 19.8209 58.9829C19.8209 59.9135 19.6322 60.7431 19.2549 61.4718C18.8863 62.1917 18.3554 62.7579 17.6621 63.1706C16.9777 63.5744 16.1527 63.7763 15.1875 63.7763ZM15.2138 62.0117C15.8457 62.0117 16.359 61.8669 16.7539 61.5772C17.1488 61.2875 17.434 60.9143 17.6095 60.4578C17.7938 60.0013 17.8859 59.5228 17.8859 59.0224C17.8859 58.6537 17.8333 58.2894 17.728 57.9294C17.6314 57.5695 17.4779 57.2447 17.2673 56.9549C17.0566 56.6652 16.7802 56.437 16.438 56.2702C16.0957 56.0946 15.6833 56.0068 15.2007 56.0068C14.5776 56.0068 14.0687 56.1517 13.6738 56.4414C13.2789 56.7223 12.9849 57.091 12.7919 57.5475C12.6076 58.004 12.5154 58.4913 12.5154 59.0093C12.5154 59.5273 12.6076 60.0145 12.7919 60.471C12.9849 60.9275 13.2789 61.3006 13.6738 61.5903C14.0774 61.8713 14.5908 62.0117 15.2138 62.0117ZM21.2877 63.671V54.3475H23.7755L26.2896 58.8512L28.7642 54.3475H31.173V63.671H29.2776V56.8496L26.6318 61.5903H25.8552L23.17 56.8496V63.671H21.2877ZM32.1783 63.671L35.8113 54.3475H37.9173L41.5108 63.671H39.4837L38.9046 62.0776H34.7846L34.2054 63.671H32.1783ZM35.3901 60.3788H38.3122L36.8643 56.3492L35.3901 60.3788ZM46.2253 63.671V54.3475H49.8582C50.569 54.3475 51.1877 54.4573 51.7142 54.6768C52.2495 54.8875 52.6619 55.2298 52.9515 55.7039C53.2411 56.1692 53.3859 56.7925 53.3859 57.5739C53.3859 58.3026 53.2236 58.9127 52.8989 59.4043C52.583 59.896 52.1486 60.2647 51.5957 60.5105C51.0429 60.7475 50.4155 60.8661 49.7134 60.8661H48.1076V63.671H46.2253ZM48.1076 59.1805H49.6871C50.2488 59.1805 50.6919 59.0488 51.0166 58.7854C51.3501 58.5133 51.5168 58.105 51.5168 57.5607C51.5168 57.0691 51.3764 56.7047 51.0955 56.4677C50.8235 56.2219 50.3847 56.099 49.7793 56.099H48.1076V59.1805ZM59.0082 63.7763C58.0518 63.7763 57.2268 63.5744 56.5336 63.1706C55.8491 62.7668 55.3226 62.2093 54.9541 61.4982C54.5943 60.7783 54.4144 59.953 54.4144 59.0224C54.4144 58.0743 54.5987 57.2402 54.9672 56.5204C55.3445 55.8005 55.8799 55.243 56.5731 54.8479C57.2663 54.4441 58.0913 54.2422 59.0477 54.2422C59.9955 54.2422 60.8116 54.4397 61.496 54.8348C62.1805 55.2298 62.707 55.7829 63.0756 56.494C63.4529 57.2052 63.6416 58.0348 63.6416 58.9829C63.6416 59.9135 63.4529 60.7431 63.0756 61.4718C62.707 62.1917 62.1761 62.7579 61.4829 63.1706C60.7984 63.5744 59.9736 63.7763 59.0082 63.7763ZM59.0346 62.0117C59.6664 62.0117 60.1798 61.8669 60.5746 61.5772C60.9695 61.2875 61.2547 60.9143 61.4302 60.4578C61.6145 60.0013 61.7066 59.5228 61.7066 59.0224C61.7066 58.6537 61.654 58.2894 61.5487 57.9294C61.4521 57.5695 61.2986 57.2447 61.088 56.9549C60.8774 56.6652 60.601 56.437 60.2587 56.2702C59.9165 56.0946 59.504 56.0068 59.0214 56.0068C58.3983 56.0068 57.8894 56.1517 57.4945 56.4414C57.0996 56.7223 56.8056 57.091 56.6126 57.5475C56.4283 58.004 56.3362 58.4913 56.3362 59.0093C56.3362 59.5273 56.4283 60.0145 56.6126 60.471C56.8056 60.9275 57.0996 61.3006 57.4945 61.5903C57.8982 61.8713 58.4115 62.0117 59.0346 62.0117ZM69.1094 63.7763C68.1531 63.7763 67.337 63.5832 66.661 63.1969C65.9943 62.8019 65.4851 62.2488 65.1341 61.5377C64.7919 60.8265 64.6208 59.9969 64.6208 59.0488C64.6208 58.083 64.7963 57.2402 65.1473 56.5204C65.5071 55.8005 66.0207 55.243 66.6874 54.8479C67.3541 54.4441 68.157 54.2422 69.0962 54.2422C69.807 54.2422 70.4434 54.3651 71.0048 54.6109C71.5662 54.848 72.0184 55.2035 72.3606 55.6776C72.7114 56.1429 72.9312 56.7179 73.0187 57.4027H71.2023C71.0884 56.9725 70.8554 56.6345 70.5046 56.3887C70.1624 56.1341 69.7063 56.0068 69.1357 56.0068C68.5039 56.0068 67.9991 56.1517 67.6219 56.4414C67.2534 56.7223 66.9855 57.091 66.819 57.5475C66.6525 57.9953 66.5689 58.4693 66.5689 58.9698C66.5689 59.4878 66.6564 59.9793 66.8322 60.4447C67.0079 60.91 67.2843 61.2875 67.6614 61.5772C68.0478 61.8669 68.5519 62.0117 69.1752 62.0117C69.5437 62.0117 69.8728 61.9591 70.1624 61.8537C70.452 61.7396 70.6889 61.5772 70.8732 61.3665C71.066 61.1558 71.1977 60.9056 71.2681 60.6158H73.1504C73.0714 61.2919 72.843 61.8669 72.4659 62.341C72.0888 62.815 71.6103 63.175 71.0312 63.4208C70.452 63.6578 69.8116 63.7763 69.1094 63.7763ZM78.6091 63.7763C77.6521 63.7763 76.836 63.5832 76.1607 63.1969C75.4934 62.8019 74.9846 62.2488 74.6338 61.5377C74.2916 60.8265 74.1205 59.9969 74.1205 59.0488C74.1205 58.083 74.2956 57.2402 74.647 56.5204C75.0063 55.8005 75.5197 55.243 76.1871 54.8479C76.8538 54.4441 77.6567 54.2422 78.5959 54.2422C79.3067 54.2422 79.9425 54.3651 80.5045 54.6109C81.0659 54.848 81.5181 55.2035 81.8603 55.6776C82.2111 56.1429 82.4303 56.7179 82.5184 57.4027H80.702C80.5874 56.9725 80.3551 56.6345 80.0043 56.3887C79.6621 56.1341 79.2053 56.0068 78.6354 56.0068C78.0036 56.0068 77.4988 56.1517 77.1216 56.4414C76.7531 56.7223 76.4852 57.091 76.3187 57.5475C76.1515 57.9953 76.0686 58.4693 76.0686 58.9698C76.0686 59.4878 76.1561 59.9793 76.3319 60.4447C76.5069 60.91 76.7834 61.2875 77.1611 61.5772C77.5468 61.8669 78.0516 62.0117 78.6749 62.0117C79.0434 62.0117 79.3725 61.9591 79.6621 61.8537C79.9517 61.7396 80.1886 61.5772 80.3729 61.3665C80.5657 61.1558 80.6973 60.9056 80.7678 60.6158H82.6501C82.5711 61.2919 82.3427 61.8669 81.9656 62.341C81.5878 62.815 81.11 63.175 80.5308 63.4208C79.9517 63.6578 79.3106 63.7763 78.6091 63.7763ZM84.1072 63.671V54.3475H85.9895V60.4842L90.4517 54.3475H92.0576V63.671H90.1753V57.6134L85.7131 63.671H84.1072ZM94.0307 63.671V54.3475H95.913V60.4842L100.375 54.3475H101.981V63.671H100.099V57.6134L95.6366 63.671H94.0307Z" fill="white"/>
<path d="M0.822144 76.708V69.0161H2.37504V74.0788L6.05639 69.0161H7.38122V76.708H5.82834V71.7104L2.14699 76.708H0.822144ZM12.2887 76.7949C11.4996 76.7949 10.8263 76.6355 10.2688 76.3169C9.71863 75.9909 9.29873 75.5346 9.00915 74.948C8.7268 74.3613 8.58563 73.6765 8.58563 72.8943C8.58563 72.0976 8.73042 71.4023 9.02001 70.8084C9.31683 70.2145 9.74035 69.7549 10.2906 69.429C10.8408 69.0958 11.5032 68.9292 12.2778 68.9292C12.8642 68.9292 13.3891 69.0306 13.8525 69.2334C14.3158 69.429 14.6886 69.722 14.971 70.1131C15.2606 70.4969 15.4415 70.9717 15.5139 71.5366H14.0153C13.9212 71.1817 13.7294 70.9025 13.4398 70.6997C13.1574 70.4897 12.781 70.385 12.3104 70.385C11.7892 70.385 11.3729 70.5042 11.0616 70.7432C10.7575 70.975 10.5367 71.2792 10.3992 71.6558C10.2616 72.0252 10.1928 72.4163 10.1928 72.8291C10.1928 73.2564 10.2652 73.662 10.41 74.0459C10.5548 74.4298 10.7829 74.7412 11.0942 74.9802C11.4127 75.2192 11.829 75.3391 12.343 75.3391C12.6471 75.3391 12.9185 75.2956 13.1574 75.2087C13.3964 75.1145 13.5918 74.9802 13.7439 74.8064C13.9031 74.6326 14.0117 74.4265 14.0696 74.1875H15.6225C15.5574 74.7452 15.3692 75.2192 15.0578 75.6103C14.7465 76.0015 14.352 76.2984 13.8742 76.5012C13.3964 76.6968 12.8679 76.7949 12.2887 76.7949ZM18.3478 76.708V70.4607H16.0022V69.0161H22.268V70.4607H19.9116V76.708H18.3478ZM26.3316 76.7949C25.5425 76.7949 24.862 76.6283 24.2901 76.2951C23.7254 75.962 23.291 75.5017 22.9869 74.915C22.6901 74.3211 22.5417 73.6403 22.5417 72.8726C22.5417 72.0904 22.6937 71.4023 22.9978 70.8084C23.3091 70.2145 23.7507 69.7549 24.3226 69.429C24.8946 69.0958 25.5751 68.9292 26.3642 68.9292C27.1461 68.9292 27.8194 69.0918 28.3841 69.4178C28.9488 69.7437 29.3831 70.2 29.6872 70.7866C29.9985 71.3733 30.1542 72.0581 30.1542 72.8403C30.1542 73.608 29.9985 74.2922 29.6872 74.8933C29.3831 75.4872 28.9451 75.9547 28.3732 76.2951C27.8085 76.6283 27.128 76.7949 26.3316 76.7949ZM26.3534 75.3391C26.8746 75.3391 27.2981 75.2192 27.6239 74.9802C27.9497 74.7412 28.185 74.4337 28.3298 74.0571C28.4818 73.6805 28.5578 73.2854 28.5578 72.8726C28.5578 72.5684 28.5144 72.2681 28.4275 71.9712C28.3479 71.6742 28.2212 71.4062 28.0474 71.1672C27.8737 70.9282 27.6456 70.7399 27.3633 70.6023C27.0809 70.4574 26.7407 70.385 26.3425 70.385C25.8285 70.385 25.4086 70.5042 25.0828 70.7432C24.757 70.975 24.5145 71.2792 24.3552 71.6558C24.2032 72.0324 24.1272 72.4347 24.1272 72.862C24.1272 73.2894 24.2032 73.691 24.3552 74.0676C24.5145 74.4443 24.757 74.7524 25.0828 74.9914C25.4158 75.2232 25.8393 75.3391 26.3534 75.3391ZM31.3643 76.708V69.0161H34.3615C34.9479 69.0161 35.4583 69.1063 35.8927 69.2874C36.3343 69.4612 36.6746 69.7437 36.9135 70.1348C37.1524 70.5187 37.2718 71.0329 37.2718 71.6775C37.2718 72.2787 37.1379 72.7824 36.87 73.188C36.6094 73.5936 36.251 73.8978 35.7949 74.1006C35.3388 74.2961 34.8212 74.3936 34.242 74.3936H32.9172V76.708H31.3643ZM32.9172 73.0029H34.2203C34.6837 73.0029 35.0493 72.8943 35.3171 72.677C35.5922 72.4525 35.7298 72.116 35.7298 71.667C35.7298 71.2614 35.6139 70.9605 35.3823 70.7649C35.1579 70.5621 34.7959 70.4607 34.2963 70.4607H32.9172V73.0029ZM38.4377 76.708V69.0161H39.9906V74.0788L43.672 69.0161H44.9968V76.708H43.4439V71.7104L39.7626 76.708H38.4377ZM46.299 76.708L48.2319 73.8286C47.689 73.662 47.2691 73.3868 46.9723 73.0029C46.6754 72.6118 46.527 72.1121 46.527 71.5037C46.527 71.0329 46.6067 70.6385 46.7659 70.3198C46.9324 70.0011 47.1569 69.7476 47.4392 69.5593C47.7215 69.3638 48.0473 69.2262 48.4166 69.1465C48.793 69.0596 49.1912 69.0161 49.6111 69.0161H52.6192V76.708H51.0663V74.0894H49.774L48.1342 76.708H46.299ZM49.622 72.6987H51.0663V70.4607H49.4916C49.2021 70.4607 48.9523 70.4969 48.7423 70.57C48.5324 70.6418 48.3659 70.7577 48.2428 70.917C48.127 71.0764 48.0691 71.2904 48.0691 71.5583C48.0691 71.8625 48.1451 72.0976 48.2971 72.2642C48.4491 72.4308 48.6446 72.5467 48.8835 72.6118C49.1297 72.6698 49.3758 72.6987 49.622 72.6987ZM60.5941 76.7949C59.8049 76.7949 59.1316 76.6355 58.5742 76.3169C58.024 75.9909 57.6041 75.5346 57.3145 74.948C57.0322 74.3613 56.891 73.6765 56.891 72.8943C56.891 72.0976 57.0358 71.4023 57.3254 70.8084C57.6222 70.2145 58.0457 69.7549 58.5959 69.429C59.1461 69.0958 59.8086 68.9292 60.5832 68.9292C61.1696 68.9292 61.6945 69.0306 62.1578 69.2334C62.6211 69.429 62.994 69.722 63.2763 70.1131C63.5659 70.4969 63.7469 70.9717 63.8193 71.5366H62.3207C62.2266 71.1817 62.0347 70.9025 61.7452 70.6997C61.4628 70.4897 61.0863 70.385 60.6158 70.385C60.0945 70.385 59.6782 70.5042 59.3669 70.7432C59.0629 70.975 58.8421 71.2792 58.7045 71.6558C58.567 72.0252 58.4982 72.4163 58.4982 72.8291C58.4982 73.2564 58.5706 73.662 58.7154 74.0459C58.8602 74.4298 59.0882 74.7412 59.3995 74.9802C59.7181 75.2192 60.1343 75.3391 60.6483 75.3391C60.9524 75.3391 61.2239 75.2956 61.4628 75.2087C61.7017 75.1145 61.8972 74.9802 62.0492 74.8064C62.2085 74.6326 62.3171 74.4265 62.375 74.1875H63.9279C63.8627 74.7452 63.6745 75.2192 63.3632 75.6103C63.0519 76.0015 62.6573 76.2984 62.1795 76.5012C61.7017 76.6968 61.1732 76.7949 60.5941 76.7949ZM66.6532 76.708V70.4607H64.3075V69.0161H70.5737V70.4607H68.2169V76.708H66.6532ZM71.4826 76.708V69.0161H74.4798C75.0662 69.0161 75.577 69.1063 76.0113 69.2874C76.453 69.4612 76.7932 69.7437 77.0321 70.1348C77.271 70.5187 77.3902 71.0329 77.3902 71.6775C77.3902 72.2787 77.2566 72.7824 76.9887 73.188C76.7281 73.5936 76.3694 73.8978 75.9133 74.1006C75.4572 74.2961 74.9399 74.3936 74.3607 74.3936H73.0359V76.708H71.4826ZM73.0359 73.0029H74.339C74.8023 73.0029 75.1676 72.8943 75.4355 72.677C75.7106 72.4525 75.8481 72.116 75.8481 71.667C75.8481 71.2614 75.7323 70.9605 75.5006 70.7649C75.2762 70.5621 74.9142 70.4607 74.4147 70.4607H73.0359V73.0029ZM77.1058 76.708L80.103 69.0161H81.8405L84.8048 76.708H83.1325L82.6547 75.3931H79.256L78.7782 76.708H77.1058ZM79.7555 73.9919H82.1663L80.9718 70.6675L79.7555 73.9919ZM85.6295 76.708V69.0161H87.1827V72.199H90.5057V69.0161H92.0695V76.708H90.5057V73.6331H87.1827V76.708H85.6295ZM93.6997 76.708V69.0161H95.2529V71.8731H96.3928C96.7548 71.8731 97.1063 71.9093 97.4465 71.9817C97.794 72.0469 98.1053 72.1667 98.3804 72.3406C98.6628 72.5071 98.8833 72.7422 99.0425 73.0464C99.209 73.3434 99.2926 73.7239 99.2926 74.1875C99.2926 74.6727 99.2058 75.0783 99.032 75.4043C98.8583 75.7302 98.6226 75.987 98.3258 76.1753C98.029 76.3636 97.6927 76.5012 97.3162 76.5881C96.9398 76.6678 96.5488 76.708 96.1434 76.708H93.6997ZM95.2529 75.2739H96.1539C96.3711 75.2739 96.5778 75.2594 96.7732 75.2304C96.9687 75.2015 97.1385 75.1508 97.2833 75.0783C97.4353 74.9987 97.5512 74.8933 97.6308 74.7629C97.7177 74.6253 97.7611 74.4482 97.7611 74.2309C97.7611 74.0064 97.7177 73.8326 97.6308 73.7094C97.5439 73.5791 97.4281 73.481 97.2833 73.4158C97.1385 73.3506 96.976 73.3071 96.795 73.2854C96.614 73.2637 96.4257 73.2532 96.2303 73.2532H95.2529V75.2739ZM100.281 76.708V69.0161H101.844V76.708H100.281Z" fill="white"/>
</svg>
