<svg width="80" height="80" viewBox="0 0 80 80" fill="none" xmlns="http://www.w3.org/2000/svg">
<path d="M11 15V18H6V67H35.5039C36.2852 68.7461 37.9727 70 40 70C42.0273 70 43.7148 68.7461 44.4961 67H74V18H69V15H43C41.7891 15 40.7344 15.5781 40 16.4375C39.2656 15.5781 38.2109 15 37 15H11ZM13 17H37C38.1172 17 39 17.8828 39 19H41C41 17.8828 41.8828 17 43 17H67V60H43C41.7891 60 40.7344 60.5781 40 61.4375C39.2656 60.5781 38.2109 60 37 60H13V17ZM8 20H11V62H37C38.1172 62 39 62.8828 39 64H41C41 62.8828 41.8828 62 43 62H69V20H72V65H43.0859L42.8906 65.75C42.5547 67.043 41.4063 68 40 68C38.5938 68 37.4453 67.043 37.1094 65.75L36.9141 65H8.00002L8 20ZM40 21C39.4492 21 39 21.4492 39 22C39 22.5508 39.4492 23 40 23C40.5508 23 41 22.5508 41 22C41 21.4492 40.5508 21 40 21ZM18 25V27H26V25H18ZM29 25C28.4492 25 28 25.4492 28 26C28 26.5508 28.4492 27 29 27C29.5508 27 30 26.5508 30 26C30 25.4492 29.5508 25 29 25ZM33 25C32.4492 25 32 25.4492 32 26C32 26.5508 32.4492 27 33 27C33.5508 27 34 26.5508 34 26C34 25.4492 33.5508 25 33 25ZM40 25C39.4492 25 39 25.4492 39 26C39 26.5508 39.4492 27 40 27C40.5508 27 41 26.5508 41 26C41 25.4492 40.5508 25 40 25ZM46 25V27H54V25H46ZM57 25C56.4492 25 56 25.4492 56 26C56 26.5508 56.4492 27 57 27C57.5508 27 58 26.5508 58 26C58 25.4492 57.5508 25 57 25ZM61 25C60.4492 25 60 25.4492 60 26C60 26.5508 60.4492 27 61 27C61.5508 27 62 26.5508 62 26C62 25.4492 61.5508 25 61 25ZM40 29C39.4492 29 39 29.4492 39 30C39 30.5508 39.4492 31 40 31C40.5508 31 41 30.5508 41 30C41 29.4492 40.5508 29 40 29ZM18 31V33H26V31H18ZM29 31C28.4492 31 28 31.4492 28 32C28 32.5508 28.4492 33 29 33C29.5508 33 30 32.5508 30 32C30 31.4492 29.5508 31 29 31ZM33 31C32.4492 31 32 31.4492 32 32C32 32.5508 32.4492 33 33 33C33.5508 33 34 32.5508 34 32C34 31.4492 33.5508 31 33 31ZM46 31V33H54V31H46ZM57 31C56.4492 31 56 31.4492 56 32C56 32.5508 56.4492 33 57 33C57.5508 33 58 32.5508 58 32C58 31.4492 57.5508 31 57 31ZM61 31C60.4492 31 60 31.4492 60 32C60 32.5508 60.4492 33 61 33C61.5508 33 62 32.5508 62 32C62 31.4492 61.5508 31 61 31ZM40 33C39.4492 33 39 33.4492 39 34C39 34.5508 39.4492 35 40 35C40.5508 35 41 34.5508 41 34C41 33.4492 40.5508 33 40 33ZM18 37V39H26V37H18ZM33 37C32.4492 37 32 37.4492 32 38C32 38.5508 32.4492 39 33 39C33.5508 39 34 38.5508 34 38C34 37.4492 33.5508 37 33 37ZM40 37C39.4492 37 39 37.4492 39 38C39 38.5508 39.4492 39 40 39C40.5508 39 41 38.5508 41 38C41 37.4492 40.5508 37 40 37ZM46 37V39H54V37H46ZM61 37C60.4492 37 60 37.4492 60 38C60 38.5508 60.4492 39 61 39C61.5508 39 62 38.5508 62 38C62 37.4492 61.5508 37 61 37ZM40 41C39.4492 41 39 41.4492 39 42C39 42.5508 39.4492 43 40 43C40.5508 43 41 42.5508 41 42C41 41.4492 40.5508 41 40 41ZM18 43V45H26V43H18ZM29 43C28.4492 43 28 43.4492 28 44C28 44.5508 28.4492 45 29 45C29.5508 45 30 44.5508 30 44C30 43.4492 29.5508 43 29 43ZM33 43C32.4492 43 32 43.4492 32 44C32 44.5508 32.4492 45 33 45C33.5508 45 34 44.5508 34 44C34 43.4492 33.5508 43 33 43ZM40 45C39.4492 45 39 45.4492 39 46C39 46.5508 39.4492 47 40 47C40.5508 47 41 46.5508 41 46C41 45.4492 40.5508 45 40 45ZM18 49V51H26V49H18ZM33 49C32.4492 49 32 49.4492 32 50C32 50.5508 32.4492 51 33 51C33.5508 51 34 50.5508 34 50C34 49.4492 33.5508 49 33 49ZM40 49C39.4492 49 39 49.4492 39 50C39 50.5508 39.4492 51 40 51C40.5508 51 41 50.5508 41 50C41 49.4492 40.5508 49 40 49ZM40 53C39.4492 53 39 53.4492 39 54C39 54.5508 39.4492 55 40 55C40.5508 55 41 54.5508 41 54C41 53.4492 40.5508 53 40 53ZM40 57C39.4492 57 39 57.4492 39 58C39 58.5508 39.4492 59 40 59C40.5508 59 41 58.5508 41 58C41 57.4492 40.5508 57 40 57Z" fill="white"/>
</svg>
