<svg width="80" height="80" viewBox="0 0 80 80" fill="none" xmlns="http://www.w3.org/2000/svg">
<path d="M40 2C39.4477 2 39 2.44772 39 3C39 3.55228 39.4477 4 40 4C40.5523 4 41 3.55228 41 3C41 2.44772 40.5523 2 40 2ZM40 6C39.4477 6 39 6.44772 39 7H32V11H26V61C25.9949 61.3606 26.1844 61.6961 26.4959 61.8779C26.8074 62.0597 27.1926 62.0597 27.5041 61.8779C27.8156 61.6961 28.0051 61.3606 28 61V13H34V9H46V13H52V61C51.9949 61.3606 52.1844 61.6961 52.4959 61.8779C52.8074 62.0597 53.1926 62.0597 53.5041 61.8779C53.8156 61.6961 54.0051 61.3606 54 61V11H48V7H41C41 6.44772 40.5523 6 40 6ZM24 17.3828L10 24.3828V61C10 61.553 10.448 62 11 62C11.552 62 12 61.553 12 61V25.6172L24 19.6172V17.3828ZM34 19C33.4477 19 33 19.4477 33 20C33 20.5523 33.4477 21 34 21C34.5523 21 35 20.5523 35 20C35 19.4477 34.5523 19 34 19ZM42 19C41.4477 19 41 19.4477 41 20C41 20.5523 41.4477 21 42 21C42.5523 21 43 20.5523 43 20C43 19.4477 42.5523 19 42 19ZM46 19C45.4477 19 45 19.4477 45 20C45 20.5523 45.4477 21 46 21C46.5523 21 47 20.5523 47 20C47 19.4477 46.5523 19 46 19ZM56 22V22.832C55.9822 22.94 55.9822 23.0502 56 23.1582V24H58H68V61C67.9949 61.3606 68.1844 61.6961 68.4959 61.8779C68.8074 62.0597 69.1926 62.0597 69.5041 61.8779C69.8156 61.6961 70.0051 61.3606 70 61V22H58H56ZM19 27C18.4477 27 18 27.4477 18 28C18 28.5523 18.4477 29 19 29C19.5523 29 20 28.5523 20 28C20 27.4477 19.5523 27 19 27ZM23 27C22.4477 27 22 27.4477 22 28C22 28.5523 22.4477 29 23 29C23.5523 29 24 28.5523 24 28C24 27.4477 23.5523 27 23 27ZM34 27C33.4477 27 33 27.4477 33 28C33 28.5523 33.4477 29 34 29C34.5523 29 35 28.5523 35 28C35 27.4477 34.5523 27 34 27ZM38 27C37.4477 27 37 27.4477 37 28C37 28.5523 37.4477 29 38 29C38.5523 29 39 28.5523 39 28C39 27.4477 38.5523 27 38 27ZM42 27C41.4477 27 41 27.4477 41 28C41 28.5523 41.4477 29 42 29C42.5523 29 43 28.5523 43 28C43 27.4477 42.5523 27 42 27ZM46 27C45.4477 27 45 27.4477 45 28C45 28.5523 45.4477 29 46 29C46.5523 29 47 28.5523 47 28C47 27.4477 46.5523 27 46 27ZM57 28C56.4477 28 56 28.4477 56 29C56 29.5523 56.4477 30 57 30C57.5523 30 58 29.5523 58 29C58 28.4477 57.5523 28 57 28ZM19 33C18.4477 33 18 33.4477 18 34C18 34.5523 18.4477 35 19 35C19.5523 35 20 34.5523 20 34C20 33.4477 19.5523 33 19 33ZM57 34C56.4477 34 56 34.4477 56 35C56 35.5523 56.4477 36 57 36C57.5523 36 58 35.5523 58 35C58 34.4477 57.5523 34 57 34ZM34 35C33.4477 35 33 35.4477 33 36C33 36.5523 33.4477 37 34 37C34.5523 37 35 36.5523 35 36C35 35.4477 34.5523 35 34 35ZM38 35C37.4477 35 37 35.4477 37 36C37 36.5523 37.4477 37 38 37C38.5523 37 39 36.5523 39 36C39 35.4477 38.5523 35 38 35ZM46 35C45.4477 35 45 35.4477 45 36C45 36.5523 45.4477 37 46 37C46.5523 37 47 36.5523 47 36C47 35.4477 46.5523 35 46 35ZM15 39C14.4477 39 14 39.4477 14 40C14 40.5523 14.4477 41 15 41C15.5523 41 16 40.5523 16 40C16 39.4477 15.5523 39 15 39ZM61 40C60.4477 40 60 40.4477 60 41C60 41.5523 60.4477 42 61 42C61.5523 42 62 41.5523 62 41C62 40.4477 61.5523 40 61 40ZM65 40C64.4477 40 64 40.4477 64 41C64 41.5523 64.4477 42 65 42C65.5523 42 66 41.5523 66 41C66 40.4477 65.5523 40 65 40ZM34 43C33.4477 43 33 43.4477 33 44C33 44.5523 33.4477 45 34 45C34.5523 45 35 44.5523 35 44C35 43.4477 34.5523 43 34 43ZM38 43C37.4477 43 37 43.4477 37 44C37 44.5523 37.4477 45 38 45C38.5523 45 39 44.5523 39 44C39 43.4477 38.5523 43 38 43ZM42 43C41.4477 43 41 43.4477 41 44C41 44.5523 41.4477 45 42 45C42.5523 45 43 44.5523 43 44C43 43.4477 42.5523 43 42 43ZM46 43C45.4477 43 45 43.4477 45 44C45 44.5523 45.4477 45 46 45C46.5523 45 47 44.5523 47 44C47 43.4477 46.5523 43 46 43ZM15 45C14.4477 45 14 45.4477 14 46C14 46.5523 14.4477 47 15 47C15.5523 47 16 46.5523 16 46C16 45.4477 15.5523 45 15 45ZM23 45C22.4477 45 22 45.4477 22 46C22 46.5523 22.4477 47 23 47C23.5523 47 24 46.5523 24 46C24 45.4477 23.5523 45 23 45ZM65 46C64.4477 46 64 46.4477 64 47C64 47.5523 64.4477 48 65 48C65.5523 48 66 47.5523 66 47C66 46.4477 65.5523 46 65 46ZM19 51C18.4477 51 18 51.4477 18 52C18 52.5523 18.4477 53 19 53C19.5523 53 20 52.5523 20 52C20 51.4477 19.5523 51 19 51ZM42 51C41.4477 51 41 51.4477 41 52C41 52.5523 41.4477 53 42 53C42.5523 53 43 52.5523 43 52C43 51.4477 42.5523 51 42 51ZM46 51C45.4477 51 45 51.4477 45 52C45 52.5523 45.4477 53 46 53C46.5523 53 47 52.5523 47 52C47 51.4477 46.5523 51 46 51ZM57 52C56.4477 52 56 52.4477 56 53C56 53.5523 56.4477 54 57 54C57.5523 54 58 53.5523 58 53C58 52.4477 57.5523 52 57 52ZM61 52C60.4477 52 60 52.4477 60 53C60 53.5523 60.4477 54 61 54C61.5523 54 62 53.5523 62 53C62 52.4477 61.5523 52 61 52ZM65 52C64.4477 52 64 52.4477 64 53C64 53.5523 64.4477 54 65 54C65.5523 54 66 53.5523 66 53C66 52.4477 65.5523 52 65 52ZM19 57C18.4477 57 18 57.4477 18 58C18 58.5523 18.4477 59 19 59C19.5523 59 20 58.5523 20 58C20 57.4477 19.5523 57 19 57ZM65 58C64.4477 58 64 58.4477 64 59C64 59.5523 64.4477 60 65 60C65.5523 60 66 59.5523 66 59C66 58.4477 65.5523 58 65 58ZM34 59C33.4477 59 33 59.4477 33 60C33 60.5523 33.4477 61 34 61C34.5523 61 35 60.5523 35 60C35 59.4477 34.5523 59 34 59ZM38 59C37.4477 59 37 59.4477 37 60C37 60.5523 37.4477 61 38 61C38.5523 61 39 60.5523 39 60C39 59.4477 38.5523 59 38 59ZM46 59C45.4477 59 45 59.4477 45 60C45 60.5523 45.4477 61 46 61C46.5523 61 47 60.5523 47 60C47 59.4477 46.5523 59 46 59ZM11 64C10.4477 64 10 64.4477 10 65C10 65.5523 10.4477 66 11 66C11.5523 66 12 65.5523 12 65C12 64.4477 11.5523 64 11 64ZM27 64C26.4477 64 26 64.4477 26 65C26 65.5523 26.4477 66 27 66C27.5523 66 28 65.5523 28 65C28 64.4477 27.5523 64 27 64ZM53 64C52.4477 64 52 64.4477 52 65C52 65.5523 52.4477 66 53 66C53.5523 66 54 65.5523 54 65C54 64.4477 53.5523 64 53 64ZM69 64C68.4477 64 68 64.4477 68 65C68 65.5523 68.4477 66 69 66C69.5523 66 70 65.5523 70 65C70 64.4477 69.5523 64 69 64ZM11 68C10.4477 68 10 68.4477 10 69C10 69.5523 10.4477 70 11 70C11.5523 70 12 69.5523 12 69C12 68.4477 11.5523 68 11 68ZM27 68C26.4477 68 26 68.4477 26 69C26 69.5523 26.4477 70 27 70C27.5523 70 28 69.5523 28 69C28 68.4477 27.5523 68 27 68ZM53 68C52.4477 68 52 68.4477 52 69C52 69.5523 52.4477 70 53 70C53.5523 70 54 69.5523 54 69C54 68.4477 53.5523 68 53 68ZM69 68C68.4477 68 68 68.4477 68 69C68 69.5523 68.4477 70 69 70C69.5523 70 70 69.5523 70 69C70 68.4477 69.5523 68 69 68Z" fill="white"/>
</svg>
