<svg width="90" height="90" viewBox="0 0 90 90" fill="none" xmlns="http://www.w3.org/2000/svg">
<path opacity="0.25" d="M60.3 82.7999H59.4V81.8999H60.3V82.7999ZM58.5 82.7999H57.6V81.8999H58.5V82.7999ZM56.7 82.7999H55.8V81.8999H56.7V82.7999ZM54.9 82.7999H54V81.8999H54.9V82.7999ZM53.1 82.7999H52.2V81.8999H53.1V82.7999ZM51.3 82.7999H50.4V81.8999H51.3V82.7999ZM49.5 82.7999H48.6V81.8999H49.5V82.7999ZM47.7 82.7999H46.8V81.8999H47.7V82.7999ZM45.9 82.7999H45V81.8999H45.9V82.7999ZM44.1 82.7999H43.2V81.8999H44.1V82.7999ZM42.3 82.7999H41.4V81.8999H42.3V82.7999ZM40.5 82.7999H39.6V81.8999H40.5V82.7999ZM38.7 82.7999H37.8V81.8999H38.7V82.7999ZM36.9 82.7999H36V81.8999H36.9V82.7999ZM35.1 82.7999H34.2V81.8999H35.1V82.7999ZM33.3 82.7999H32.4V81.8999H33.3V82.7999ZM31.5 82.7999H30.6V81.8999H31.5V82.7999Z" fill="white"/>
<path opacity="0.25" d="M61.2 9.0001H60.3V8.1001H61.2V9.0001ZM59.4 9.0001H58.5V8.1001H59.4V9.0001ZM57.6 9.0001H56.7V8.1001H57.6V9.0001ZM55.8 9.0001H54.9V8.1001H55.8V9.0001ZM54 9.0001H53.1V8.1001H54V9.0001ZM52.2 9.0001H51.3V8.1001H52.2V9.0001ZM50.4 9.0001H49.5V8.1001H50.4V9.0001ZM48.6 9.0001H47.7V8.1001H48.6V9.0001ZM46.8 9.0001H45.9V8.1001H46.8V9.0001ZM45 9.0001H44.1V8.1001H45V9.0001ZM43.2 9.0001H42.3V8.1001H43.2V9.0001ZM41.4 9.0001H40.5V8.1001H41.4V9.0001ZM39.6 9.0001H38.7V8.1001H39.6V9.0001ZM37.8 9.0001H36.9V8.1001H37.8V9.0001ZM36 9.0001H35.1V8.1001H36V9.0001ZM34.2 9.0001H33.3V8.1001H34.2V9.0001ZM32.4 9.0001H31.5V8.1001H32.4V9.0001ZM30.6 9.0001H29.7V8.1001H30.6V9.0001ZM28.8 9.0001H27.9V8.1001H28.8V9.0001Z" fill="white"/>
<path opacity="0.25" d="M70.2 73.7999H69.3V72.8999H70.2V73.7999ZM70.2 71.9999H69.3V71.0999H70.2V71.9999ZM70.2 70.1999H69.3V69.2999H70.2V70.1999ZM70.2 68.3999H69.3V67.4999H70.2V68.3999ZM70.2 66.5999H69.3V65.6999H70.2V66.5999ZM70.2 64.7999H69.3V63.8999H70.2V64.7999Z" fill="white"/>
<path opacity="0.25" d="M70.2 30.6H69.3V29.7H70.2V30.6ZM70.2 28.8H69.3V27.9H70.2V28.8ZM70.2 27H69.3V26.1H70.2V27ZM70.2 25.2H69.3V24.3H70.2V25.2ZM70.2 23.4H69.3V22.5H70.2V23.4ZM70.2 21.6H69.3V20.7H70.2V21.6Z" fill="white"/>
<path opacity="0.25" d="M20.7 18.9H19.8V18H20.7V18.9ZM20.7 17.1H19.8V16.2H20.7V17.1Z" fill="white"/>
<path opacity="0.25" d="M20.7 61.2H19.8V60.3H20.7V61.2ZM20.7 59.4H19.8V58.5H20.7V59.4ZM20.7 57.6H19.8V56.7H20.7V57.6ZM20.7 55.8H19.8V54.9H20.7V55.8ZM20.7 54H19.8V53.1H20.7V54ZM20.7 52.2H19.8V51.3H20.7V52.2ZM20.7 50.4H19.8V49.5H20.7V50.4ZM20.7 48.6H19.8V47.7H20.7V48.6ZM20.7 46.8H19.8V45.9H20.7V46.8ZM20.7 45H19.8V44.1H20.7V45ZM20.7 43.2H19.8V42.3H20.7V43.2ZM20.7 41.4H19.8V40.5H20.7V41.4ZM20.7 39.6H19.8V38.7H20.7V39.6ZM20.7 37.8H19.8V36.9H20.7V37.8ZM20.7 36H19.8V35.1H20.7V36ZM20.7 34.2H19.8V33.3H20.7V34.2Z" fill="white"/>
<path opacity="0.85" d="M28.8 90V74.7H29.7V90H28.8Z" fill="url(#paint0_linear_102_646)"/>
<path opacity="0.85" d="M29.7 74.7H9.90002V75.6H29.7V74.7Z" fill="url(#paint1_linear_102_646)"/>
<path opacity="0.85" d="M61.2 90V74.7H60.3V90H61.2Z" fill="url(#paint2_linear_102_646)"/>
<path opacity="0.85" d="M80.1 74.7H60.3V75.6H80.1V74.7Z" fill="url(#paint3_linear_102_646)"/>
<path opacity="0.85" d="M80.1 62.1001H60.3V63.0001H80.1V62.1001Z" fill="url(#paint4_linear_102_646)"/>
<path opacity="0.85" d="M80.1 31.5H60.3V32.4H80.1V31.5Z" fill="url(#paint5_linear_102_646)"/>
<path opacity="0.85" d="M80.1 18.8999H60.3V19.7999H80.1V18.8999Z" fill="url(#paint6_linear_102_646)"/>
<path opacity="0.85" d="M29.7 62.1001H9.90002V63.0001H29.7V62.1001Z" fill="url(#paint7_linear_102_646)"/>
<path opacity="0.85" d="M29.7 31.5H9.90002V32.4H29.7V31.5Z" fill="url(#paint8_linear_102_646)"/>
<path opacity="0.85" d="M80.1 14.3999H60.3V15.2999H80.1V14.3999Z" fill="url(#paint9_linear_102_646)"/>
<path opacity="0.85" d="M29.7 14.3999H9.90002V15.2999H29.7V14.3999Z" fill="url(#paint10_linear_102_646)"/>
<path opacity="0.85" d="M27.9 0V17.1H27V0H27.9Z" fill="url(#paint11_linear_102_646)"/>
<path opacity="0.85" d="M63 0V17.1H62.1V0H63Z" fill="url(#paint12_linear_102_646)"/>
<path opacity="0.85" d="M29.7 18.8999H9.90002V19.7999H29.7V18.8999Z" fill="url(#paint13_linear_102_646)"/>
<path opacity="0.85" d="M27.0037 26.1V15.3H27.9037V26.1H27.0037Z" fill="url(#paint14_linear_102_646)"/>
<path opacity="0.85" d="M62.1 26.1V15.3H63V26.1H62.1Z" fill="url(#paint15_linear_102_646)"/>
<path d="M60.3001 18.8999H29.7001V74.6999H60.3001V18.8999Z" fill="white" fill-opacity="0.12941"/>
<path d="M61.2001 75.6H28.8V18H61.2001V75.6ZM30.6 73.8H59.4V19.8H30.6V73.8Z" fill="white"/>
<path d="M60.3001 31.5H29.7001V33.3H60.3001V31.5Z" fill="white"/>
<path d="M60.3001 61.2H29.7001V63H60.3001V61.2Z" fill="white"/>
<path d="M62.1 15.3H27.9V18.9H62.1V15.3Z" fill="white" fill-opacity="0.12941"/>
<path d="M63 19.7999H27V14.3999H63V19.7999ZM28.8 17.9999H61.2V16.1999H28.8V17.9999Z" fill="white"/>
<path opacity="0.3" d="M34.065 40.95H35.343L37.35 38.943V37.665L34.065 40.95ZM36.927 35.55L33.75 38.727V39.987L37.35 36.387V35.55H36.927ZM34.371 35.55L33.75 36.171V37.449L35.649 35.55H34.371Z" fill="white"/>
<path opacity="0.3" d="M40.365 40.95H41.643L43.65 38.943V37.665L40.365 40.95ZM43.227 35.55L40.05 38.727V39.987L43.65 36.387V35.55H43.227ZM40.671 35.55L40.05 36.171V37.449L41.949 35.55H40.671Z" fill="white"/>
<path opacity="0.3" d="M46.665 40.95H47.943L49.95 38.943V37.665L46.665 40.95ZM49.527 35.55L46.35 38.727V39.987L49.95 36.387V35.55H49.527ZM46.971 35.55L46.35 36.171V37.449L48.249 35.55H46.971Z" fill="white"/>
<path opacity="0.3" d="M52.965 40.95H54.243L56.25 38.943V37.665L52.965 40.95ZM55.827 35.55L52.65 38.727V39.987L56.25 36.387V35.55H55.827ZM53.271 35.55L52.65 36.171V37.449L54.549 35.55H53.271Z" fill="white"/>
<path opacity="0.3" d="M34.065 49.95H35.343L37.35 47.943V46.665L34.065 49.95ZM36.927 44.55L33.75 47.727V48.987L37.35 45.387V44.55H36.927ZM34.371 44.55L33.75 45.171V46.449L35.649 44.55H34.371Z" fill="white"/>
<path opacity="0.3" d="M40.365 49.95H41.643L43.65 47.943V46.665L40.365 49.95ZM43.227 44.55L40.05 47.727V48.987L43.65 45.387V44.55H43.227ZM40.671 44.55L40.05 45.171V46.449L41.949 44.55H40.671Z" fill="white"/>
<path opacity="0.3" d="M46.665 49.95H47.943L49.95 47.943V46.665L46.665 49.95ZM49.527 44.55L46.35 47.727V48.987L49.95 45.387V44.55H49.527ZM46.971 44.55L46.35 45.171V46.449L48.249 44.55H46.971Z" fill="white"/>
<path opacity="0.3" d="M52.965 49.95H54.243L56.25 47.943V46.665L52.965 49.95ZM55.827 44.55L52.65 47.727V48.987L56.25 45.387V44.55H55.827ZM53.271 44.55L52.65 45.171V46.449L54.549 44.55H53.271Z" fill="white"/>
<path opacity="0.3" d="M34.065 58.95H35.343L37.35 56.943V55.665L34.065 58.95ZM36.927 53.55L33.75 56.727V57.987L37.35 54.387V53.55H36.927ZM34.371 53.55L33.75 54.171V55.449L35.649 53.55H34.371Z" fill="white"/>
<path opacity="0.3" d="M40.365 58.95H41.643L43.65 56.943V55.665L40.365 58.95ZM43.227 53.55L40.05 56.727V57.987L43.65 54.387V53.55H43.227ZM40.671 53.55L40.05 54.171V55.449L41.949 53.55H40.671Z" fill="white"/>
<path opacity="0.3" d="M46.665 58.95H47.943L49.95 56.943V55.665L46.665 58.95ZM49.527 53.55L46.35 56.727V57.987L49.95 54.387V53.55H49.527ZM46.971 53.55L46.35 54.171V55.449L48.249 53.55H46.971Z" fill="white"/>
<path opacity="0.3" d="M52.965 58.95H54.243L56.25 56.943V55.665L52.965 58.95ZM55.827 53.55L52.65 56.727V57.987L56.25 54.387V53.55H55.827ZM53.271 53.55L52.65 54.171V55.449L54.549 53.55H53.271Z" fill="white"/>
<path d="M44.1 50.4001H39.6V44.1001H44.1V50.4001ZM40.5 49.5001H43.2V45.0001H40.5V49.5001Z" fill="white"/>
<path d="M37.8 50.4001H33.3V44.1001H37.8V50.4001ZM34.2 49.5001H36.9V45.0001H34.2V49.5001Z" fill="white"/>
<path d="M56.7001 50.4001H52.2001V44.1001H56.7001V50.4001ZM53.1001 49.5001H55.8001V45.0001H53.1001V49.5001Z" fill="white"/>
<path d="M50.4 50.4001H45.9V44.1001H50.4V50.4001ZM46.8 49.5001H49.5V45.0001H46.8V49.5001Z" fill="white"/>
<path d="M44.1 41.4001H39.6V35.1001H44.1V41.4001ZM40.5 40.5001H43.2V36.0001H40.5V40.5001Z" fill="white"/>
<path d="M56.7001 41.4001H52.2001V35.1001H56.7001V41.4001ZM53.1001 40.5001H55.8001V36.0001H53.1001V40.5001Z" fill="white"/>
<path d="M50.4 41.4001H45.9V35.1001H50.4V41.4001ZM46.8 40.5001H49.5V36.0001H46.8V40.5001Z" fill="white"/>
<path d="M44.1 59.4001H39.6V53.1001H44.1V59.4001ZM40.5 58.5001H43.2V54.0001H40.5V58.5001Z" fill="white"/>
<path d="M37.8 59.4001H33.3V53.1001H37.8V59.4001ZM34.2 58.5001H36.9V54.0001H34.2V58.5001Z" fill="white"/>
<path d="M56.7001 59.4001H52.2001V53.1001H56.7001V59.4001ZM53.1001 58.5001H55.8001V54.0001H53.1001V58.5001Z" fill="white"/>
<path d="M50.4 59.4001H45.9V53.1001H50.4V59.4001ZM46.8 58.5001H49.5V54.0001H46.8V58.5001Z" fill="white"/>
<path d="M37.8 41.4001H33.3V35.1001H37.8V41.4001ZM34.2 40.5001H36.9V36.0001H34.2V40.5001Z" fill="white"/>
<path opacity="0.3" d="M34.065 70.65H35.343L37.35 68.643V67.365L34.065 70.65ZM36.927 65.25L33.75 68.427V69.687L37.35 66.087V65.25H36.927ZM34.371 65.25L33.75 65.871V67.149L35.649 65.25H34.371Z" fill="white"/>
<path d="M37.8 71.1H33.3V64.8H37.8V71.1ZM34.2 70.2H36.9V65.7H34.2V70.2Z" fill="white"/>
<path opacity="0.3" d="M52.965 70.65H54.243L56.25 68.643V67.365L52.965 70.65ZM55.827 65.25L52.65 68.427V69.687L56.25 66.087V65.25H55.827ZM53.271 65.25L52.65 65.871V67.149L54.549 65.25H53.271Z" fill="white"/>
<path d="M56.7001 71.1H52.2001V64.8H56.7001V71.1ZM53.1001 70.2H55.8001V65.7H53.1001V70.2Z" fill="white"/>
<path opacity="0.3" d="M33.849 29.25H35.118L37.35 27.018V25.749L33.849 29.25ZM33.75 26.802V28.071L37.35 24.471V23.202L33.75 26.802ZM35.955 22.05L33.75 24.255V25.533L37.233 22.05H35.955Z" fill="white"/>
<path d="M37.8 29.7001H33.3V21.6001H37.8V29.7001ZM34.2 28.8001H36.9V22.5001H34.2V28.8001Z" fill="white"/>
<path opacity="0.3" d="M40.149 29.25H41.418L43.65 27.018V25.749L40.149 29.25ZM40.05 26.802V28.071L43.65 24.471V23.202L40.05 26.802ZM42.255 22.05L40.05 24.255V25.533L43.533 22.05H42.255Z" fill="white"/>
<path opacity="0.3" d="M46.449 29.25H47.718L49.95 27.018V25.749L46.449 29.25ZM46.35 26.802V28.071L49.95 24.471V23.202L46.35 26.802ZM48.555 22.05L46.35 24.255V25.533L49.833 22.05H48.555Z" fill="white"/>
<path opacity="0.3" d="M52.749 29.25H54.018L56.25 27.018V25.749L52.749 29.25ZM52.65 26.802V28.071L56.25 24.471V23.202L52.65 26.802ZM54.855 22.05L52.65 24.255V25.533L56.133 22.05H54.855Z" fill="white"/>
<path d="M44.1 29.7001H39.6V21.6001H44.1V29.7001ZM40.5 28.8001H43.2V22.5001H40.5V28.8001Z" fill="white"/>
<path d="M56.7001 29.7001H52.2001V21.6001H56.7001V29.7001ZM53.1001 28.8001H55.8001V22.5001H53.1001V28.8001Z" fill="white"/>
<path d="M50.4 29.7001H45.9V21.6001H50.4V29.7001ZM46.8 28.8001H49.5V22.5001H46.8V28.8001Z" fill="white"/>
<path opacity="0.3" d="M41.769 65.25L40.05 66.969V68.247L43.0471 65.25H41.769ZM44.307 65.25L40.05 69.507V70.785L45.5851 65.25H44.307ZM46.863 65.25L40.05 72.063V73.332L48.132 65.25H46.863ZM49.401 65.25L40.05 74.601V74.7H41.2291L49.95 65.979V65.25H49.401ZM42.507 74.7H43.7671L49.95 68.517V67.257L42.507 74.7ZM45.045 74.7H46.3231L49.95 71.073V69.795L45.045 74.7ZM47.5921 74.7H48.861L49.95 73.611V72.342L47.5921 74.7Z" fill="white"/>
<path d="M50.4 73.8H49.5V65.7H40.5V73.8H39.6V64.8H50.4V73.8Z" fill="white"/>
<path opacity="0.3" d="M38.4661 15.3L35.3161 18.45H36.585L39.7351 15.3H38.4661ZM35.9101 15.3L32.7601 18.45H34.038L37.188 15.3H35.9101ZM33.3721 15.3L30.2221 18.45H31.4911L34.6411 15.3H33.3721ZM30.825 15.3L27.675 18.45H28.944L32.094 15.3H30.825ZM61.209 15.3L58.059 18.45H59.328L62.478 15.3H61.209ZM58.662 15.3L55.512 18.45H56.781L59.931 15.3H58.662ZM56.115 15.3L52.965 18.45H54.243L57.393 15.3H56.115ZM53.568 15.3L50.418 18.45H51.696L54.837 15.3H53.568ZM51.021 15.3L47.88 18.45H49.149L52.299 15.3H51.021ZM48.474 15.3L45.324 18.45H46.602L49.752 15.3H48.474ZM45.936 15.3L42.786 18.45H44.055L47.205 15.3H45.936ZM43.389 15.3L40.239 18.45H41.508L44.658 15.3H43.389ZM40.842 15.3L37.692 18.45H38.97L42.12 15.3H40.842Z" fill="white"/>
<defs>
<linearGradient id="paint0_linear_102_646" x1="29.25" y1="89.8452" x2="29.25" y2="70.0956" gradientUnits="userSpaceOnUse">
<stop stop-color="white" stop-opacity="0"/>
<stop offset="1" stop-color="white"/>
</linearGradient>
<linearGradient id="paint1_linear_102_646" x1="10.1007" y1="75.15" x2="35.658" y2="75.15" gradientUnits="userSpaceOnUse">
<stop stop-color="white" stop-opacity="0"/>
<stop offset="1" stop-color="white"/>
</linearGradient>
<linearGradient id="paint2_linear_102_646" x1="60.75" y1="89.8452" x2="60.75" y2="70.0956" gradientUnits="userSpaceOnUse">
<stop stop-color="white" stop-opacity="0"/>
<stop offset="1" stop-color="white"/>
</linearGradient>
<linearGradient id="paint3_linear_102_646" x1="79.8993" y1="75.15" x2="54.342" y2="75.15" gradientUnits="userSpaceOnUse">
<stop stop-color="white" stop-opacity="0"/>
<stop offset="1" stop-color="white"/>
</linearGradient>
<linearGradient id="paint4_linear_102_646" x1="79.8993" y1="62.5501" x2="54.342" y2="62.5501" gradientUnits="userSpaceOnUse">
<stop stop-color="white" stop-opacity="0"/>
<stop offset="1" stop-color="white"/>
</linearGradient>
<linearGradient id="paint5_linear_102_646" x1="79.8993" y1="31.95" x2="54.342" y2="31.95" gradientUnits="userSpaceOnUse">
<stop stop-color="white" stop-opacity="0"/>
<stop offset="1" stop-color="white"/>
</linearGradient>
<linearGradient id="paint6_linear_102_646" x1="79.8993" y1="19.3499" x2="54.342" y2="19.3499" gradientUnits="userSpaceOnUse">
<stop stop-color="white" stop-opacity="0"/>
<stop offset="1" stop-color="white"/>
</linearGradient>
<linearGradient id="paint7_linear_102_646" x1="10.1007" y1="62.5501" x2="35.658" y2="62.5501" gradientUnits="userSpaceOnUse">
<stop stop-color="white" stop-opacity="0"/>
<stop offset="1" stop-color="white"/>
</linearGradient>
<linearGradient id="paint8_linear_102_646" x1="10.1007" y1="31.95" x2="35.658" y2="31.95" gradientUnits="userSpaceOnUse">
<stop stop-color="white" stop-opacity="0"/>
<stop offset="1" stop-color="white"/>
</linearGradient>
<linearGradient id="paint9_linear_102_646" x1="79.8993" y1="14.8499" x2="54.342" y2="14.8499" gradientUnits="userSpaceOnUse">
<stop stop-color="white" stop-opacity="0"/>
<stop offset="1" stop-color="white"/>
</linearGradient>
<linearGradient id="paint10_linear_102_646" x1="10.1007" y1="14.8499" x2="35.658" y2="14.8499" gradientUnits="userSpaceOnUse">
<stop stop-color="white" stop-opacity="0"/>
<stop offset="1" stop-color="white"/>
</linearGradient>
<linearGradient id="paint11_linear_102_646" x1="27.45" y1="0.1728" x2="27.45" y2="22.2453" gradientUnits="userSpaceOnUse">
<stop stop-color="white" stop-opacity="0"/>
<stop offset="1" stop-color="white"/>
</linearGradient>
<linearGradient id="paint12_linear_102_646" x1="62.55" y1="0.1728" x2="62.55" y2="22.2453" gradientUnits="userSpaceOnUse">
<stop stop-color="white" stop-opacity="0"/>
<stop offset="1" stop-color="white"/>
</linearGradient>
<linearGradient id="paint13_linear_102_646" x1="10.1007" y1="19.3499" x2="35.658" y2="19.3499" gradientUnits="userSpaceOnUse">
<stop stop-color="white" stop-opacity="0"/>
<stop offset="1" stop-color="white"/>
</linearGradient>
<linearGradient id="paint14_linear_102_646" x1="27.4537" y1="25.9911" x2="27.4537" y2="12.0501" gradientUnits="userSpaceOnUse">
<stop stop-color="white" stop-opacity="0"/>
<stop offset="1" stop-color="white"/>
</linearGradient>
<linearGradient id="paint15_linear_102_646" x1="62.55" y1="25.9911" x2="62.55" y2="12.0501" gradientUnits="userSpaceOnUse">
<stop stop-color="white" stop-opacity="0"/>
<stop offset="1" stop-color="white"/>
</linearGradient>
</defs>
</svg>
