<svg width="80" height="80" viewBox="0 0 80 80" fill="none" xmlns="http://www.w3.org/2000/svg">
<path d="M54.3969 5.81567L53.5969 6.28131L50.3969 8.13756L49.6 8.59694V9.51881V14.1344L45.5969 16.4563L44.8 16.9188V17.8407V20.5969L41.6 22.4438V21.5188V20.5938L40.8 20.1313L26.4 11.8282L25.6 11.3688L24.8 11.8313L10.4 20.1345L9.59998 20.5938V21.5188V56.6251V57.547L10.4 58.0095L39.2 74.6345L40 75.097L40.8 74.6345L69.6 58.0095L70.4 57.547V56.6251V25.2157V24.2939L69.6 23.8314L64 20.597V17.8251V16.9001L63.2 16.4376L59.2 14.1314V9.50326V8.57827L58.3969 8.11577L55.1969 6.27827L54.3969 5.81567ZM54.4 8.12505L56.8031 9.5063L54.4 10.9L52 9.51879L54.4 8.12505ZM57.2 10.1969V15.0563V16.6719L54.8 18.0594V11.5907L57.2 10.1969ZM51.6 10.2125L54 11.5938V18.0594L51.6 16.675V15.075C51.6001 15.0688 51.6001 15.0626 51.6 15.0563V10.2125ZM25.6 13.6782L32.8 17.8313L25.6 21.9875L18.4 17.8313L25.6 13.6782ZM50.8 15.75V16.9063C50.7998 17.0494 50.8761 17.1816 51 17.2532L54.2 19.1001C54.3237 19.1715 54.4762 19.1715 54.6 19.1001L57.8 17.2501C57.9239 17.1785 58.0001 17.0462 58 16.9032V15.7501L61.6 17.8251L54.4 21.9876L47.2 17.8407L50.8 15.75ZM62 18.5188V21.5188V24.9844L54.7969 29.1407L54.8 22.6782L62 18.5188ZM17.2 18.5219V21.525C17.1998 21.6681 17.2761 21.8004 17.4 21.8719L25.4 26.4907C25.5237 26.5621 25.6762 26.5621 25.8 26.4907L33.8 21.8719C33.9239 21.8004 34.0001 21.6681 34 21.525V18.5219L39.2031 21.5219L25.6 29.375L11.9969 21.5219L17.2 18.5219ZM18 18.525L25.2 22.6782V25.45L18 21.2938V18.525ZM33.2 18.525V21.2938L26 25.4501V22.6782L33.2 18.525ZM46.8 18.5344L54 22.6782L53.9969 29.1406L46.8 24.9875V21.5375C46.8001 21.5313 46.8001 21.525 46.8 21.5188V18.5344ZM11.6 22.2125L25.2 30.0688L25.2031 40.9V40.9188L25.2 64.2438L11.6 56.3938V22.2125ZM39.6 22.2125V25.2157V32.375L26.0031 40.225L26 30.0688L39.6 22.2125ZM46 22.2125V25.2188C46.0009 25.3607 46.077 25.4916 46.2 25.5625L54.1969 30.1813C54.3206 30.2527 54.4731 30.2527 54.5969 30.1813L62.5969 25.5625C62.7208 25.491 62.797 25.3587 62.7969 25.2157L62.8 22.2125L68 25.2157L54.4 33.0719L40.7969 25.2188L46 22.2125ZM68.4 25.9094V56.3938L54.7969 64.2469L54.8 40.9406C54.8001 40.9344 54.8001 40.9282 54.8 40.9219V33.7656L68.4 25.9094ZM40.4 25.9125L54 33.7657V40.2282L51.6 38.8438V35.3813C51.6001 35.2382 51.5239 35.106 51.4 35.0344L48.2 33.1875C48.13 33.1468 48.0494 33.1283 47.9687 33.1344C47.7601 33.1508 47.5994 33.3251 47.6 33.5344V36.5313L46.8 36.0719V32.6094C46.8001 32.4663 46.7239 32.3341 46.6 32.2625L43.4 30.4157C43.33 30.375 43.2494 30.3564 43.1687 30.3625C42.9601 30.3789 42.7994 30.5533 42.8 30.7625V33.7594L40.4 32.375V25.9125ZM14.3687 26.6688C14.1601 26.6852 13.9994 26.8595 14 27.0688V30.7625C13.9998 30.9056 14.0761 31.0379 14.2 31.1094L22.2 35.7282C22.3238 35.7996 22.4764 35.7996 22.6002 35.728C22.7239 35.6565 22.8001 35.5243 22.8 35.3813V31.6876C22.8001 31.5445 22.7239 31.4122 22.6 31.3407L14.6 26.7219C14.53 26.6812 14.4494 26.6627 14.3687 26.6688ZM36.7875 26.6688C36.7216 26.6708 36.6571 26.689 36.6 26.7219L28.6 31.3407C28.4761 31.4122 28.3998 31.5445 28.4 31.6875V35.3813C28.3998 35.5243 28.476 35.6565 28.5998 35.728C28.7236 35.7996 28.8762 35.7996 29 35.7282L37 31.1094C37.1239 31.0379 37.2001 30.9056 37.2 30.7625V27.0688C37.2 26.9605 37.1562 26.8568 37.0784 26.7814C37.0007 26.7061 36.8957 26.6654 36.7875 26.6688ZM14.8 27.7594L22 31.9157V34.6875L14.8 30.5313V27.7594ZM36.4 27.7594V30.5313L29.2 34.6875V31.9157L36.4 27.7594ZM65.5875 30.3625C65.5216 30.3645 65.4571 30.3828 65.4 30.4157L62.2 32.2625C62.0761 32.3341 61.9998 32.4663 62 32.6094V56.6282C61.9998 56.7711 62.076 56.9033 62.1998 56.9749C62.3236 57.0465 62.4762 57.0465 62.6 56.975L65.8 55.1282C65.9239 55.0566 66.0001 54.9243 66 54.7813V30.7625C66 30.6542 65.9562 30.5506 65.8784 30.4752C65.8007 30.3998 65.6957 30.3592 65.5875 30.3625ZM43.6 31.4563L46 32.8407V35.6094L43.6 34.2219V31.4563ZM65.2 31.4563V54.55L62.8 55.9344V32.8407L65.2 31.4563ZM40 33.0657L53.6 40.9219L40 48.7719L26.4031 40.9188L40 33.0657ZM60.7875 33.1344C60.7216 33.1364 60.6571 33.1546 60.6 33.1875L57.4 35.0344C57.2761 35.1059 57.1998 35.2382 57.2 35.3813V59.3969C57.1998 59.5399 57.276 59.6721 57.3998 59.7436C57.5236 59.8152 57.6762 59.8153 57.8 59.7438L61 57.9C61.1239 57.8285 61.2001 57.6962 61.2 57.5532V33.5344C61.2 33.4261 61.1562 33.3224 61.0784 33.2471C61.0007 33.1717 60.8957 33.131 60.7875 33.1344ZM14.3687 34.0563C14.1601 34.0727 13.9994 34.247 14 34.4563V38.1532C14.0009 38.2951 14.077 38.4259 14.2 38.4969L22.2 43.1188C22.3238 43.1903 22.4764 43.1902 22.6002 43.1186C22.7239 43.0471 22.8001 42.9149 22.8 42.7719V39.0782C22.8001 38.9351 22.7239 38.8029 22.6 38.7313L14.6 34.1126C14.5422 34.0781 14.4766 34.0587 14.4094 34.0563C14.3958 34.0556 14.3823 34.0556 14.3687 34.0563ZM48.4 34.2282L50.8 35.6125V38.3813L48.4 36.9938V34.2282ZM60.4 34.2282V57.3219L58 58.7063V35.6125L60.4 34.2282ZM14.8 35.15L22 39.3063V42.0782L14.8 37.9219V35.15ZM14.3687 41.4469C14.1601 41.4633 13.9994 41.6377 14 41.8469V45.5438C14.0009 45.6858 14.077 45.8166 14.2 45.8875L22.2 50.5094C22.3238 50.5809 22.4764 50.5808 22.6002 50.5093C22.7239 50.4377 22.8001 50.3055 22.8 50.1626V46.4657C22.8001 46.3226 22.7239 46.1903 22.6 46.1188L14.6 41.5032C14.5422 41.4687 14.4766 41.4493 14.4094 41.4469C14.3958 41.4462 14.3823 41.4462 14.3687 41.4469ZM26.0031 41.6125L39.6 49.4657V72.5563L26 64.7063L26.0031 41.6125ZM54 41.6157L53.9969 64.7094L40.4 72.5563V49.4657L54 41.6157ZM14.8 42.5407L22 46.6969V49.4688L14.8 45.3125V42.5407ZM28.7687 46.0657C28.5601 46.082 28.3994 46.2564 28.4 46.4657V52.0094C28.3998 52.1525 28.4761 52.2847 28.6 52.3563L31.8 54.2032C31.9238 54.2747 32.0764 54.2746 32.2002 54.203C32.3239 54.1315 32.4001 53.9993 32.4 53.8563V48.3126C32.399 48.1706 32.3229 48.0398 32.2 47.9688L29 46.1188C28.93 46.0781 28.8494 46.0596 28.7687 46.0657ZM51.1875 46.0657C51.1216 46.0677 51.0571 46.0859 51 46.1188L47.8 47.9688C47.677 48.0398 47.6009 48.1706 47.6 48.3125V53.8563C47.5998 53.9993 47.676 54.1314 47.7998 54.203C47.9236 54.2746 48.0762 54.2746 48.2 54.2031L51.4 52.3563C51.5239 52.2847 51.6001 52.1525 51.6 52.0094V46.4656C51.6 46.3574 51.5562 46.2537 51.4784 46.1783C51.4007 46.1029 51.2957 46.0623 51.1875 46.0657ZM29.2 47.1594L31.6 48.5438V53.1625L29.2 51.7782V47.1594ZM50.8 47.1594V51.7782L48.4 53.1625V48.5438L50.8 47.1594ZM14.3687 48.8375C14.1601 48.8539 13.9994 49.0283 14 49.2375V52.9313C13.9998 53.0744 14.0761 53.2066 14.2 53.2782L22.2 57.8969C22.3233 57.9681 22.4752 57.9684 22.5988 57.8976C22.7224 57.8268 22.799 57.6956 22.8 57.5532V53.8563C22.8001 53.7132 22.7239 53.581 22.6 53.5094L14.6 48.8907C14.5419 48.8573 14.4763 48.839 14.4094 48.8375C14.3958 48.8369 14.3823 48.8369 14.3687 48.8375ZM33.5687 48.8375C33.3601 48.8539 33.1994 49.0283 33.2 49.2375V54.7813C33.1998 54.9244 33.2761 55.0566 33.4 55.1282L36.6 56.975C36.7238 57.0465 36.8764 57.0465 37.0002 56.9749C37.1239 56.9033 37.2001 56.7712 37.2 56.6282V51.0844C37.2001 50.9414 37.1239 50.8091 37 50.7376L33.8 48.8907C33.7419 48.8573 33.6763 48.839 33.6094 48.8376C33.5958 48.8369 33.5823 48.8369 33.5687 48.8375ZM46.3875 48.8375C46.3216 48.8395 46.2571 48.8578 46.2 48.8907L43 50.7375C42.8761 50.8091 42.7998 50.9414 42.8 51.0844V56.6282C42.7998 56.7711 42.876 56.9033 42.9998 56.9749C43.1236 57.0465 43.2762 57.0465 43.4 56.975L46.6 55.1282C46.7239 55.0566 46.8001 54.9243 46.8 54.7813V49.2375C46.8 49.1292 46.7562 49.0256 46.6784 48.9502C46.6007 48.8748 46.4957 48.8342 46.3875 48.8375ZM14.8 49.9313L22 54.0875V56.8594L14.8 52.7032V49.9313ZM34 49.9313L36.4 51.3157V55.9344L34 54.55V49.9313ZM46 49.9313V54.55L43.6 55.9344V51.3157L46 49.9313ZM28.7687 55.3032C28.5601 55.3195 28.3994 55.4939 28.4 55.7032V61.2469C28.3998 61.39 28.4761 61.5222 28.6 61.5938L31.8 63.4407C31.9238 63.5121 32.0764 63.5121 32.2002 63.4405C32.3239 63.3689 32.4001 63.2368 32.4 63.0938V57.5532C32.4001 57.4101 32.3239 57.2778 32.2 57.2063L29 55.3563C28.9419 55.3229 28.8763 55.3046 28.8094 55.3032C28.7958 55.3025 28.7823 55.3025 28.7687 55.3032ZM51.1875 55.3032C51.1216 55.3051 51.0571 55.3234 51 55.3563L47.8 57.2063C47.6761 57.2778 47.5998 57.4101 47.6 57.5532V63.0938C47.5998 63.2368 47.676 63.369 47.7998 63.4405C47.9236 63.5121 48.0762 63.5121 48.2 63.4406L51.4 61.5938C51.5239 61.5222 51.6001 61.39 51.6 61.2469V55.7031C51.6 55.5949 51.5562 55.4912 51.4784 55.4158C51.4007 55.3404 51.2957 55.2998 51.1875 55.3032ZM29.2 56.3969L31.6 57.7813V62.4L29.2 61.0157V56.3969ZM50.8 56.3969V61.0157L48.4 62.4V57.7813L50.8 56.3969ZM33.5687 58.075C33.3601 58.0914 33.1994 58.2658 33.2 58.475V64.0188C33.2009 64.1607 33.277 64.2916 33.4 64.3625L36.6 66.2125C36.7238 66.284 36.8764 66.2839 37.0002 66.2124C37.1239 66.1408 37.2001 66.0086 37.2 65.8657V60.3219C37.199 60.18 37.1229 60.0492 37 59.9782L33.8 58.1282C33.73 58.0875 33.6494 58.069 33.5687 58.075ZM46.3875 58.075C46.3216 58.077 46.2571 58.0953 46.2 58.1282L43 59.9782C42.877 60.0491 42.8009 60.18 42.8 60.3219V65.8657C42.7998 66.0086 42.876 66.1408 42.9998 66.2124C43.1236 66.2839 43.2762 66.284 43.4 66.2125L46.6 64.3625C46.7229 64.2915 46.799 64.1607 46.8 64.0188V58.475C46.8 58.3667 46.7562 58.2631 46.6784 58.1877C46.6007 58.1123 46.4957 58.0717 46.3875 58.075ZM34 59.1688L36.4 60.5532V65.1719L34 63.7875V59.1688ZM46 59.1688V63.7875L43.6 65.1719V60.5532L46 59.1688Z" fill="white"/>
</svg>
